G04 #@! TF.GenerationSoftware,KiCad,Pcbnew,(5.0.2)-1*
G04 #@! TF.CreationDate,2019-04-15T20:42:24-05:00*
G04 #@! TF.ProjectId,testDesign2,74657374-4465-4736-9967-6e322e6b6963,rev?*
G04 #@! TF.SameCoordinates,Original*
G04 #@! TF.FileFunction,Legend,Top*
G04 #@! TF.FilePolarity,Positive*
%FSLAX46Y46*%
G04 Gerber Fmt 4.6, Leading zero omitted, Abs format (unit mm)*
G04 Created by KiCad (PCBNEW (5.0.2)-1) date 4/15/2019 8:42:24 PM*
%MOMM*%
%LPD*%
G01*
G04 APERTURE LIST*
%ADD10C,0.200000*%
%ADD11C,0.120000*%
%ADD12C,0.100000*%
%ADD13C,0.080000*%
G04 APERTURE END LIST*
D10*
X53800000Y-51800000D02*
G75*
G03X53800000Y-51800000I-100000J0D01*
G01*
D11*
G04 #@! TO.C,TDO*
X61100000Y-59300000D02*
G75*
G03X61100000Y-59300000I-700000J0D01*
G01*
G04 #@! TO.C,Y2*
X58100000Y-47625000D02*
X54100000Y-47625000D01*
X58100000Y-50775000D02*
X58100000Y-47625000D01*
G04 #@! TO.C,Y1*
X52375000Y-56825000D02*
X52375000Y-55475000D01*
X50625000Y-56825000D02*
X50625000Y-55475000D01*
G04 #@! TO.C,U1*
X57760000Y-51990000D02*
X58110000Y-51990000D01*
X58110000Y-51990000D02*
X58110000Y-52340000D01*
X54240000Y-56210000D02*
X53890000Y-56210000D01*
X53890000Y-56210000D02*
X53890000Y-55860000D01*
X57760000Y-56210000D02*
X58110000Y-56210000D01*
X58110000Y-56210000D02*
X58110000Y-55860000D01*
X54240000Y-51990000D02*
X53890000Y-51990000D01*
G04 #@! TO.C,RST*
X65000000Y-56400000D02*
G75*
G03X65000000Y-56400000I-700000J0D01*
G01*
G04 #@! TO.C,TDI*
X62700000Y-58700000D02*
G75*
G03X62700000Y-58700000I-700000J0D01*
G01*
G04 #@! TO.C,TCK*
X59500000Y-59700000D02*
G75*
G03X59500000Y-59700000I-700000J0D01*
G01*
G04 #@! TO.C,TMS*
X57800000Y-59700000D02*
G75*
G03X57800000Y-59700000I-700000J0D01*
G01*
G04 #@! TO.C,L3*
X63310000Y-56003922D02*
X63310000Y-56521078D01*
X61890000Y-56003922D02*
X61890000Y-56521078D01*
G04 #@! TO.C,C9*
X61310000Y-54924721D02*
X61310000Y-55250279D01*
X60290000Y-54924721D02*
X60290000Y-55250279D01*
G04 #@! TO.C,C12*
X58990000Y-54924721D02*
X58990000Y-55250279D01*
X60010000Y-54924721D02*
X60010000Y-55250279D01*
G04 #@! TO.C,C13*
X60375279Y-57810000D02*
X60049721Y-57810000D01*
X60375279Y-56790000D02*
X60049721Y-56790000D01*
G04 #@! TO.C,RX*
X52250000Y-58750000D02*
G75*
G03X52250000Y-58750000I-700000J0D01*
G01*
G04 #@! TO.C,TX*
X53550000Y-59400000D02*
G75*
G03X53550000Y-59400000I-700000J0D01*
G01*
G04 #@! TO.C,GND*
X48550000Y-54950000D02*
G75*
G03X48550000Y-54950000I-700000J0D01*
G01*
G04 #@! TO.C,TDO*
D12*
X59645238Y-57976190D02*
X59930952Y-57976190D01*
X59788095Y-58476190D02*
X59788095Y-57976190D01*
X60097619Y-58476190D02*
X60097619Y-57976190D01*
X60216666Y-57976190D01*
X60288095Y-58000000D01*
X60335714Y-58047619D01*
X60359523Y-58095238D01*
X60383333Y-58190476D01*
X60383333Y-58261904D01*
X60359523Y-58357142D01*
X60335714Y-58404761D01*
X60288095Y-58452380D01*
X60216666Y-58476190D01*
X60097619Y-58476190D01*
X60692857Y-57976190D02*
X60788095Y-57976190D01*
X60835714Y-58000000D01*
X60883333Y-58047619D01*
X60907142Y-58142857D01*
X60907142Y-58309523D01*
X60883333Y-58404761D01*
X60835714Y-58452380D01*
X60788095Y-58476190D01*
X60692857Y-58476190D01*
X60645238Y-58452380D01*
X60597619Y-58404761D01*
X60573809Y-58309523D01*
X60573809Y-58142857D01*
X60597619Y-58047619D01*
X60645238Y-58000000D01*
X60692857Y-57976190D01*
G04 #@! TO.C,Y2*
D13*
X56909523Y-51190476D02*
X56909523Y-51380952D01*
X56776190Y-50980952D02*
X56909523Y-51190476D01*
X57042857Y-50980952D01*
X57157142Y-51019047D02*
X57176190Y-51000000D01*
X57214285Y-50980952D01*
X57309523Y-50980952D01*
X57347619Y-51000000D01*
X57366666Y-51019047D01*
X57385714Y-51057142D01*
X57385714Y-51095238D01*
X57366666Y-51152380D01*
X57138095Y-51380952D01*
X57385714Y-51380952D01*
G04 #@! TO.C,Y1*
D12*
X51488095Y-56388095D02*
X51726190Y-56388095D01*
X51226190Y-56554761D02*
X51488095Y-56388095D01*
X51226190Y-56221428D01*
X51726190Y-55792857D02*
X51726190Y-56078571D01*
X51726190Y-55935714D02*
X51226190Y-55935714D01*
X51297619Y-55983333D01*
X51345238Y-56030952D01*
X51369047Y-56078571D01*
G04 #@! TO.C,U1*
D13*
X55695238Y-50980952D02*
X55695238Y-51304761D01*
X55714285Y-51342857D01*
X55733333Y-51361904D01*
X55771428Y-51380952D01*
X55847619Y-51380952D01*
X55885714Y-51361904D01*
X55904761Y-51342857D01*
X55923809Y-51304761D01*
X55923809Y-50980952D01*
X56323809Y-51380952D02*
X56095238Y-51380952D01*
X56209523Y-51380952D02*
X56209523Y-50980952D01*
X56171428Y-51038095D01*
X56133333Y-51076190D01*
X56095238Y-51095238D01*
G04 #@! TO.C,RST*
D12*
X64026190Y-57826190D02*
X63859523Y-57588095D01*
X63740476Y-57826190D02*
X63740476Y-57326190D01*
X63930952Y-57326190D01*
X63978571Y-57350000D01*
X64002380Y-57373809D01*
X64026190Y-57421428D01*
X64026190Y-57492857D01*
X64002380Y-57540476D01*
X63978571Y-57564285D01*
X63930952Y-57588095D01*
X63740476Y-57588095D01*
X64216666Y-57802380D02*
X64288095Y-57826190D01*
X64407142Y-57826190D01*
X64454761Y-57802380D01*
X64478571Y-57778571D01*
X64502380Y-57730952D01*
X64502380Y-57683333D01*
X64478571Y-57635714D01*
X64454761Y-57611904D01*
X64407142Y-57588095D01*
X64311904Y-57564285D01*
X64264285Y-57540476D01*
X64240476Y-57516666D01*
X64216666Y-57469047D01*
X64216666Y-57421428D01*
X64240476Y-57373809D01*
X64264285Y-57350000D01*
X64311904Y-57326190D01*
X64430952Y-57326190D01*
X64502380Y-57350000D01*
X64645238Y-57326190D02*
X64930952Y-57326190D01*
X64788095Y-57826190D02*
X64788095Y-57326190D01*
G04 #@! TO.C,TDI*
X62788095Y-58326190D02*
X63073809Y-58326190D01*
X62930952Y-58826190D02*
X62930952Y-58326190D01*
X63240476Y-58826190D02*
X63240476Y-58326190D01*
X63359523Y-58326190D01*
X63430952Y-58350000D01*
X63478571Y-58397619D01*
X63502380Y-58445238D01*
X63526190Y-58540476D01*
X63526190Y-58611904D01*
X63502380Y-58707142D01*
X63478571Y-58754761D01*
X63430952Y-58802380D01*
X63359523Y-58826190D01*
X63240476Y-58826190D01*
X63740476Y-58826190D02*
X63740476Y-58326190D01*
G04 #@! TO.C,TCK*
X58257142Y-58326190D02*
X58542857Y-58326190D01*
X58400000Y-58826190D02*
X58400000Y-58326190D01*
X58995238Y-58778571D02*
X58971428Y-58802380D01*
X58900000Y-58826190D01*
X58852380Y-58826190D01*
X58780952Y-58802380D01*
X58733333Y-58754761D01*
X58709523Y-58707142D01*
X58685714Y-58611904D01*
X58685714Y-58540476D01*
X58709523Y-58445238D01*
X58733333Y-58397619D01*
X58780952Y-58350000D01*
X58852380Y-58326190D01*
X58900000Y-58326190D01*
X58971428Y-58350000D01*
X58995238Y-58373809D01*
X59209523Y-58826190D02*
X59209523Y-58326190D01*
X59495238Y-58826190D02*
X59280952Y-58540476D01*
X59495238Y-58326190D02*
X59209523Y-58611904D01*
G04 #@! TO.C,TMS*
X56733333Y-58326190D02*
X57019047Y-58326190D01*
X56876190Y-58826190D02*
X56876190Y-58326190D01*
X57185714Y-58826190D02*
X57185714Y-58326190D01*
X57352380Y-58683333D01*
X57519047Y-58326190D01*
X57519047Y-58826190D01*
X57733333Y-58802380D02*
X57804761Y-58826190D01*
X57923809Y-58826190D01*
X57971428Y-58802380D01*
X57995238Y-58778571D01*
X58019047Y-58730952D01*
X58019047Y-58683333D01*
X57995238Y-58635714D01*
X57971428Y-58611904D01*
X57923809Y-58588095D01*
X57828571Y-58564285D01*
X57780952Y-58540476D01*
X57757142Y-58516666D01*
X57733333Y-58469047D01*
X57733333Y-58421428D01*
X57757142Y-58373809D01*
X57780952Y-58350000D01*
X57828571Y-58326190D01*
X57947619Y-58326190D01*
X58019047Y-58350000D01*
G04 #@! TO.C,R1*
X62226190Y-52783333D02*
X61988095Y-52950000D01*
X62226190Y-53069047D02*
X61726190Y-53069047D01*
X61726190Y-52878571D01*
X61750000Y-52830952D01*
X61773809Y-52807142D01*
X61821428Y-52783333D01*
X61892857Y-52783333D01*
X61940476Y-52807142D01*
X61964285Y-52830952D01*
X61988095Y-52878571D01*
X61988095Y-53069047D01*
X62226190Y-52307142D02*
X62226190Y-52592857D01*
X62226190Y-52450000D02*
X61726190Y-52450000D01*
X61797619Y-52497619D01*
X61845238Y-52545238D01*
X61869047Y-52592857D01*
G04 #@! TO.C,L3*
X62416666Y-54476190D02*
X62178571Y-54476190D01*
X62178571Y-53976190D01*
X62535714Y-53976190D02*
X62845238Y-53976190D01*
X62678571Y-54166666D01*
X62750000Y-54166666D01*
X62797619Y-54190476D01*
X62821428Y-54214285D01*
X62845238Y-54261904D01*
X62845238Y-54380952D01*
X62821428Y-54428571D01*
X62797619Y-54452380D01*
X62750000Y-54476190D01*
X62607142Y-54476190D01*
X62559523Y-54452380D01*
X62535714Y-54428571D01*
G04 #@! TO.C,L2*
X53126190Y-53183333D02*
X53126190Y-53421428D01*
X52626190Y-53421428D01*
X52673809Y-53040476D02*
X52650000Y-53016666D01*
X52626190Y-52969047D01*
X52626190Y-52850000D01*
X52650000Y-52802380D01*
X52673809Y-52778571D01*
X52721428Y-52754761D01*
X52769047Y-52754761D01*
X52840476Y-52778571D01*
X53126190Y-53064285D01*
X53126190Y-52754761D01*
G04 #@! TO.C,L1*
X50326190Y-51783333D02*
X50326190Y-52021428D01*
X49826190Y-52021428D01*
X50326190Y-51354761D02*
X50326190Y-51640476D01*
X50326190Y-51497619D02*
X49826190Y-51497619D01*
X49897619Y-51545238D01*
X49945238Y-51592857D01*
X49969047Y-51640476D01*
G04 #@! TO.C,C15*
X52378571Y-52078571D02*
X52354761Y-52102380D01*
X52283333Y-52126190D01*
X52235714Y-52126190D01*
X52164285Y-52102380D01*
X52116666Y-52054761D01*
X52092857Y-52007142D01*
X52069047Y-51911904D01*
X52069047Y-51840476D01*
X52092857Y-51745238D01*
X52116666Y-51697619D01*
X52164285Y-51650000D01*
X52235714Y-51626190D01*
X52283333Y-51626190D01*
X52354761Y-51650000D01*
X52378571Y-51673809D01*
X52854761Y-52126190D02*
X52569047Y-52126190D01*
X52711904Y-52126190D02*
X52711904Y-51626190D01*
X52664285Y-51697619D01*
X52616666Y-51745238D01*
X52569047Y-51769047D01*
X53307142Y-51626190D02*
X53069047Y-51626190D01*
X53045238Y-51864285D01*
X53069047Y-51840476D01*
X53116666Y-51816666D01*
X53235714Y-51816666D01*
X53283333Y-51840476D01*
X53307142Y-51864285D01*
X53330952Y-51911904D01*
X53330952Y-52030952D01*
X53307142Y-52078571D01*
X53283333Y-52102380D01*
X53235714Y-52126190D01*
X53116666Y-52126190D01*
X53069047Y-52102380D01*
X53045238Y-52078571D01*
G04 #@! TO.C,C14*
D13*
X60032857Y-50737142D02*
X60051904Y-50756190D01*
X60070952Y-50813333D01*
X60070952Y-50851428D01*
X60051904Y-50908571D01*
X60013809Y-50946666D01*
X59975714Y-50965714D01*
X59899523Y-50984761D01*
X59842380Y-50984761D01*
X59766190Y-50965714D01*
X59728095Y-50946666D01*
X59690000Y-50908571D01*
X59670952Y-50851428D01*
X59670952Y-50813333D01*
X59690000Y-50756190D01*
X59709047Y-50737142D01*
X60070952Y-50356190D02*
X60070952Y-50584761D01*
X60070952Y-50470476D02*
X59670952Y-50470476D01*
X59728095Y-50508571D01*
X59766190Y-50546666D01*
X59785238Y-50584761D01*
X59804285Y-50013333D02*
X60070952Y-50013333D01*
X59651904Y-50108571D02*
X59937619Y-50203809D01*
X59937619Y-49956190D01*
G04 #@! TO.C,C11*
D12*
X56478571Y-58406428D02*
X56502380Y-58430238D01*
X56526190Y-58501666D01*
X56526190Y-58549285D01*
X56502380Y-58620714D01*
X56454761Y-58668333D01*
X56407142Y-58692142D01*
X56311904Y-58715952D01*
X56240476Y-58715952D01*
X56145238Y-58692142D01*
X56097619Y-58668333D01*
X56050000Y-58620714D01*
X56026190Y-58549285D01*
X56026190Y-58501666D01*
X56050000Y-58430238D01*
X56073809Y-58406428D01*
X56526190Y-57930238D02*
X56526190Y-58215952D01*
X56526190Y-58073095D02*
X56026190Y-58073095D01*
X56097619Y-58120714D01*
X56145238Y-58168333D01*
X56169047Y-58215952D01*
X56526190Y-57454047D02*
X56526190Y-57739761D01*
X56526190Y-57596904D02*
X56026190Y-57596904D01*
X56097619Y-57644523D01*
X56145238Y-57692142D01*
X56169047Y-57739761D01*
G04 #@! TO.C,C7*
D13*
X59853333Y-51592857D02*
X59834285Y-51611904D01*
X59777142Y-51630952D01*
X59739047Y-51630952D01*
X59681904Y-51611904D01*
X59643809Y-51573809D01*
X59624761Y-51535714D01*
X59605714Y-51459523D01*
X59605714Y-51402380D01*
X59624761Y-51326190D01*
X59643809Y-51288095D01*
X59681904Y-51250000D01*
X59739047Y-51230952D01*
X59777142Y-51230952D01*
X59834285Y-51250000D01*
X59853333Y-51269047D01*
X59986666Y-51230952D02*
X60253333Y-51230952D01*
X60081904Y-51630952D01*
G04 #@! TO.C,C6*
D12*
X49178571Y-56883333D02*
X49202380Y-56907142D01*
X49226190Y-56978571D01*
X49226190Y-57026190D01*
X49202380Y-57097619D01*
X49154761Y-57145238D01*
X49107142Y-57169047D01*
X49011904Y-57192857D01*
X48940476Y-57192857D01*
X48845238Y-57169047D01*
X48797619Y-57145238D01*
X48750000Y-57097619D01*
X48726190Y-57026190D01*
X48726190Y-56978571D01*
X48750000Y-56907142D01*
X48773809Y-56883333D01*
X48726190Y-56454761D02*
X48726190Y-56550000D01*
X48750000Y-56597619D01*
X48773809Y-56621428D01*
X48845238Y-56669047D01*
X48940476Y-56692857D01*
X49130952Y-56692857D01*
X49178571Y-56669047D01*
X49202380Y-56645238D01*
X49226190Y-56597619D01*
X49226190Y-56502380D01*
X49202380Y-56454761D01*
X49178571Y-56430952D01*
X49130952Y-56407142D01*
X49011904Y-56407142D01*
X48964285Y-56430952D01*
X48940476Y-56454761D01*
X48916666Y-56502380D01*
X48916666Y-56597619D01*
X48940476Y-56645238D01*
X48964285Y-56669047D01*
X49011904Y-56692857D01*
G04 #@! TO.C,C5*
X53778571Y-58168333D02*
X53802380Y-58192142D01*
X53826190Y-58263571D01*
X53826190Y-58311190D01*
X53802380Y-58382619D01*
X53754761Y-58430238D01*
X53707142Y-58454047D01*
X53611904Y-58477857D01*
X53540476Y-58477857D01*
X53445238Y-58454047D01*
X53397619Y-58430238D01*
X53350000Y-58382619D01*
X53326190Y-58311190D01*
X53326190Y-58263571D01*
X53350000Y-58192142D01*
X53373809Y-58168333D01*
X53326190Y-57715952D02*
X53326190Y-57954047D01*
X53564285Y-57977857D01*
X53540476Y-57954047D01*
X53516666Y-57906428D01*
X53516666Y-57787380D01*
X53540476Y-57739761D01*
X53564285Y-57715952D01*
X53611904Y-57692142D01*
X53730952Y-57692142D01*
X53778571Y-57715952D01*
X53802380Y-57739761D01*
X53826190Y-57787380D01*
X53826190Y-57906428D01*
X53802380Y-57954047D01*
X53778571Y-57977857D01*
G04 #@! TO.C,C4*
X50416666Y-53778571D02*
X50392857Y-53802380D01*
X50321428Y-53826190D01*
X50273809Y-53826190D01*
X50202380Y-53802380D01*
X50154761Y-53754761D01*
X50130952Y-53707142D01*
X50107142Y-53611904D01*
X50107142Y-53540476D01*
X50130952Y-53445238D01*
X50154761Y-53397619D01*
X50202380Y-53350000D01*
X50273809Y-53326190D01*
X50321428Y-53326190D01*
X50392857Y-53350000D01*
X50416666Y-53373809D01*
X50845238Y-53492857D02*
X50845238Y-53826190D01*
X50726190Y-53302380D02*
X50607142Y-53659523D01*
X50916666Y-53659523D01*
G04 #@! TO.C,C3*
X49163571Y-55168333D02*
X49187380Y-55192142D01*
X49211190Y-55263571D01*
X49211190Y-55311190D01*
X49187380Y-55382619D01*
X49139761Y-55430238D01*
X49092142Y-55454047D01*
X48996904Y-55477857D01*
X48925476Y-55477857D01*
X48830238Y-55454047D01*
X48782619Y-55430238D01*
X48735000Y-55382619D01*
X48711190Y-55311190D01*
X48711190Y-55263571D01*
X48735000Y-55192142D01*
X48758809Y-55168333D01*
X48711190Y-55001666D02*
X48711190Y-54692142D01*
X48901666Y-54858809D01*
X48901666Y-54787380D01*
X48925476Y-54739761D01*
X48949285Y-54715952D01*
X48996904Y-54692142D01*
X49115952Y-54692142D01*
X49163571Y-54715952D01*
X49187380Y-54739761D01*
X49211190Y-54787380D01*
X49211190Y-54930238D01*
X49187380Y-54977857D01*
X49163571Y-55001666D01*
G04 #@! TO.C,C2*
X49916666Y-50778571D02*
X49892857Y-50802380D01*
X49821428Y-50826190D01*
X49773809Y-50826190D01*
X49702380Y-50802380D01*
X49654761Y-50754761D01*
X49630952Y-50707142D01*
X49607142Y-50611904D01*
X49607142Y-50540476D01*
X49630952Y-50445238D01*
X49654761Y-50397619D01*
X49702380Y-50350000D01*
X49773809Y-50326190D01*
X49821428Y-50326190D01*
X49892857Y-50350000D01*
X49916666Y-50373809D01*
X50107142Y-50373809D02*
X50130952Y-50350000D01*
X50178571Y-50326190D01*
X50297619Y-50326190D01*
X50345238Y-50350000D01*
X50369047Y-50373809D01*
X50392857Y-50421428D01*
X50392857Y-50469047D01*
X50369047Y-50540476D01*
X50083333Y-50826190D01*
X50392857Y-50826190D01*
G04 #@! TO.C,C9*
X60716666Y-53478571D02*
X60692857Y-53502380D01*
X60621428Y-53526190D01*
X60573809Y-53526190D01*
X60502380Y-53502380D01*
X60454761Y-53454761D01*
X60430952Y-53407142D01*
X60407142Y-53311904D01*
X60407142Y-53240476D01*
X60430952Y-53145238D01*
X60454761Y-53097619D01*
X60502380Y-53050000D01*
X60573809Y-53026190D01*
X60621428Y-53026190D01*
X60692857Y-53050000D01*
X60716666Y-53073809D01*
X60954761Y-53526190D02*
X61050000Y-53526190D01*
X61097619Y-53502380D01*
X61121428Y-53478571D01*
X61169047Y-53407142D01*
X61192857Y-53311904D01*
X61192857Y-53121428D01*
X61169047Y-53073809D01*
X61145238Y-53050000D01*
X61097619Y-53026190D01*
X61002380Y-53026190D01*
X60954761Y-53050000D01*
X60930952Y-53073809D01*
X60907142Y-53121428D01*
X60907142Y-53240476D01*
X60930952Y-53288095D01*
X60954761Y-53311904D01*
X61002380Y-53335714D01*
X61097619Y-53335714D01*
X61145238Y-53311904D01*
X61169047Y-53288095D01*
X61192857Y-53240476D01*
G04 #@! TO.C,C12*
X59178571Y-53478571D02*
X59154761Y-53502380D01*
X59083333Y-53526190D01*
X59035714Y-53526190D01*
X58964285Y-53502380D01*
X58916666Y-53454761D01*
X58892857Y-53407142D01*
X58869047Y-53311904D01*
X58869047Y-53240476D01*
X58892857Y-53145238D01*
X58916666Y-53097619D01*
X58964285Y-53050000D01*
X59035714Y-53026190D01*
X59083333Y-53026190D01*
X59154761Y-53050000D01*
X59178571Y-53073809D01*
X59654761Y-53526190D02*
X59369047Y-53526190D01*
X59511904Y-53526190D02*
X59511904Y-53026190D01*
X59464285Y-53097619D01*
X59416666Y-53145238D01*
X59369047Y-53169047D01*
X59845238Y-53073809D02*
X59869047Y-53050000D01*
X59916666Y-53026190D01*
X60035714Y-53026190D01*
X60083333Y-53050000D01*
X60107142Y-53073809D01*
X60130952Y-53121428D01*
X60130952Y-53169047D01*
X60107142Y-53240476D01*
X59821428Y-53526190D01*
X60130952Y-53526190D01*
G04 #@! TO.C,C13*
X58578571Y-57621428D02*
X58602380Y-57645238D01*
X58626190Y-57716666D01*
X58626190Y-57764285D01*
X58602380Y-57835714D01*
X58554761Y-57883333D01*
X58507142Y-57907142D01*
X58411904Y-57930952D01*
X58340476Y-57930952D01*
X58245238Y-57907142D01*
X58197619Y-57883333D01*
X58150000Y-57835714D01*
X58126190Y-57764285D01*
X58126190Y-57716666D01*
X58150000Y-57645238D01*
X58173809Y-57621428D01*
X58626190Y-57145238D02*
X58626190Y-57430952D01*
X58626190Y-57288095D02*
X58126190Y-57288095D01*
X58197619Y-57335714D01*
X58245238Y-57383333D01*
X58269047Y-57430952D01*
X58126190Y-56978571D02*
X58126190Y-56669047D01*
X58316666Y-56835714D01*
X58316666Y-56764285D01*
X58340476Y-56716666D01*
X58364285Y-56692857D01*
X58411904Y-56669047D01*
X58530952Y-56669047D01*
X58578571Y-56692857D01*
X58602380Y-56716666D01*
X58626190Y-56764285D01*
X58626190Y-56907142D01*
X58602380Y-56954761D01*
X58578571Y-56978571D01*
G04 #@! TO.C,SW1*
X66337380Y-53836666D02*
X66361190Y-53765238D01*
X66361190Y-53646190D01*
X66337380Y-53598571D01*
X66313571Y-53574761D01*
X66265952Y-53550952D01*
X66218333Y-53550952D01*
X66170714Y-53574761D01*
X66146904Y-53598571D01*
X66123095Y-53646190D01*
X66099285Y-53741428D01*
X66075476Y-53789047D01*
X66051666Y-53812857D01*
X66004047Y-53836666D01*
X65956428Y-53836666D01*
X65908809Y-53812857D01*
X65885000Y-53789047D01*
X65861190Y-53741428D01*
X65861190Y-53622380D01*
X65885000Y-53550952D01*
X65861190Y-53384285D02*
X66361190Y-53265238D01*
X66004047Y-53170000D01*
X66361190Y-53074761D01*
X65861190Y-52955714D01*
X66361190Y-52503333D02*
X66361190Y-52789047D01*
X66361190Y-52646190D02*
X65861190Y-52646190D01*
X65932619Y-52693809D01*
X65980238Y-52741428D01*
X66004047Y-52789047D01*
G04 #@! TO.C,RX*
X50316666Y-58576190D02*
X50150000Y-58338095D01*
X50030952Y-58576190D02*
X50030952Y-58076190D01*
X50221428Y-58076190D01*
X50269047Y-58100000D01*
X50292857Y-58123809D01*
X50316666Y-58171428D01*
X50316666Y-58242857D01*
X50292857Y-58290476D01*
X50269047Y-58314285D01*
X50221428Y-58338095D01*
X50030952Y-58338095D01*
X50483333Y-58076190D02*
X50816666Y-58576190D01*
X50816666Y-58076190D02*
X50483333Y-58576190D01*
G04 #@! TO.C,TX*
X53769047Y-59426190D02*
X54054761Y-59426190D01*
X53911904Y-59926190D02*
X53911904Y-59426190D01*
X54173809Y-59426190D02*
X54507142Y-59926190D01*
X54507142Y-59426190D02*
X54173809Y-59926190D01*
G04 #@! TO.C,GND*
D13*
X48019047Y-55800000D02*
X47971428Y-55776190D01*
X47900000Y-55776190D01*
X47828571Y-55800000D01*
X47780952Y-55847619D01*
X47757142Y-55895238D01*
X47733333Y-55990476D01*
X47733333Y-56061904D01*
X47757142Y-56157142D01*
X47780952Y-56204761D01*
X47828571Y-56252380D01*
X47900000Y-56276190D01*
X47947619Y-56276190D01*
X48019047Y-56252380D01*
X48042857Y-56228571D01*
X48042857Y-56061904D01*
X47947619Y-56061904D01*
X48257142Y-56276190D02*
X48257142Y-55776190D01*
X48542857Y-56276190D01*
X48542857Y-55776190D01*
X48780952Y-56276190D02*
X48780952Y-55776190D01*
X48900000Y-55776190D01*
X48971428Y-55800000D01*
X49019047Y-55847619D01*
X49042857Y-55895238D01*
X49066666Y-55990476D01*
X49066666Y-56061904D01*
X49042857Y-56157142D01*
X49019047Y-56204761D01*
X48971428Y-56252380D01*
X48900000Y-56276190D01*
X48780952Y-56276190D01*
G04 #@! TD*
M02*
