G04 #@! TF.GenerationSoftware,KiCad,Pcbnew,(5.0.2)-1*
G04 #@! TF.CreationDate,2019-04-15T20:42:24-05:00*
G04 #@! TF.ProjectId,testDesign2,74657374-4465-4736-9967-6e322e6b6963,rev?*
G04 #@! TF.SameCoordinates,Original*
G04 #@! TF.FileFunction,Legend,Bot*
G04 #@! TF.FilePolarity,Positive*
%FSLAX46Y46*%
G04 Gerber Fmt 4.6, Leading zero omitted, Abs format (unit mm)*
G04 Created by KiCad (PCBNEW (5.0.2)-1) date 4/15/2019 8:42:24 PM*
%MOMM*%
%LPD*%
G01*
G04 APERTURE LIST*
%ADD10C,0.080000*%
%ADD11C,0.150000*%
%ADD12C,0.120000*%
%ADD13C,0.100000*%
G04 APERTURE END LIST*
D10*
X60969047Y-57231190D02*
X60969047Y-56731190D01*
X60969047Y-56969285D02*
X60683333Y-56969285D01*
X60683333Y-57231190D02*
X60683333Y-56731190D01*
X60183333Y-57231190D02*
X60469047Y-57231190D01*
X60326190Y-57231190D02*
X60326190Y-56731190D01*
X60373809Y-56802619D01*
X60421428Y-56850238D01*
X60469047Y-56874047D01*
X59754761Y-56731190D02*
X59850000Y-56731190D01*
X59897619Y-56755000D01*
X59921428Y-56778809D01*
X59969047Y-56850238D01*
X59992857Y-56945476D01*
X59992857Y-57135952D01*
X59969047Y-57183571D01*
X59945238Y-57207380D01*
X59897619Y-57231190D01*
X59802380Y-57231190D01*
X59754761Y-57207380D01*
X59730952Y-57183571D01*
X59707142Y-57135952D01*
X59707142Y-57016904D01*
X59730952Y-56969285D01*
X59754761Y-56945476D01*
X59802380Y-56921666D01*
X59897619Y-56921666D01*
X59945238Y-56945476D01*
X59969047Y-56969285D01*
X59992857Y-57016904D01*
X62623809Y-58061190D02*
X62623809Y-57561190D01*
X62504761Y-57561190D01*
X62433333Y-57585000D01*
X62385714Y-57632619D01*
X62361904Y-57680238D01*
X62338095Y-57775476D01*
X62338095Y-57846904D01*
X62361904Y-57942142D01*
X62385714Y-57989761D01*
X62433333Y-58037380D01*
X62504761Y-58061190D01*
X62623809Y-58061190D01*
X61909523Y-58061190D02*
X61909523Y-57799285D01*
X61933333Y-57751666D01*
X61980952Y-57727857D01*
X62076190Y-57727857D01*
X62123809Y-57751666D01*
X61909523Y-58037380D02*
X61957142Y-58061190D01*
X62076190Y-58061190D01*
X62123809Y-58037380D01*
X62147619Y-57989761D01*
X62147619Y-57942142D01*
X62123809Y-57894523D01*
X62076190Y-57870714D01*
X61957142Y-57870714D01*
X61909523Y-57846904D01*
X61719047Y-57727857D02*
X61600000Y-58061190D01*
X61480952Y-57727857D02*
X61600000Y-58061190D01*
X61647619Y-58180238D01*
X61671428Y-58204047D01*
X61719047Y-58227857D01*
X61219047Y-58061190D02*
X61266666Y-58037380D01*
X61290476Y-58013571D01*
X61314285Y-57965952D01*
X61314285Y-57823095D01*
X61290476Y-57775476D01*
X61266666Y-57751666D01*
X61219047Y-57727857D01*
X61147619Y-57727857D01*
X61100000Y-57751666D01*
X61076190Y-57775476D01*
X61052380Y-57823095D01*
X61052380Y-57965952D01*
X61076190Y-58013571D01*
X61100000Y-58037380D01*
X61147619Y-58061190D01*
X61219047Y-58061190D01*
X60623809Y-57727857D02*
X60623809Y-58061190D01*
X60838095Y-57727857D02*
X60838095Y-57989761D01*
X60814285Y-58037380D01*
X60766666Y-58061190D01*
X60695238Y-58061190D01*
X60647619Y-58037380D01*
X60623809Y-58013571D01*
X60385714Y-57727857D02*
X60385714Y-58061190D01*
X60385714Y-57775476D02*
X60361904Y-57751666D01*
X60314285Y-57727857D01*
X60242857Y-57727857D01*
X60195238Y-57751666D01*
X60171428Y-57799285D01*
X60171428Y-58061190D01*
X59719047Y-57727857D02*
X59719047Y-58132619D01*
X59742857Y-58180238D01*
X59766666Y-58204047D01*
X59814285Y-58227857D01*
X59885714Y-58227857D01*
X59933333Y-58204047D01*
X59719047Y-58037380D02*
X59766666Y-58061190D01*
X59861904Y-58061190D01*
X59909523Y-58037380D01*
X59933333Y-58013571D01*
X59957142Y-57965952D01*
X59957142Y-57823095D01*
X59933333Y-57775476D01*
X59909523Y-57751666D01*
X59861904Y-57727857D01*
X59766666Y-57727857D01*
X59719047Y-57751666D01*
X58861904Y-58061190D02*
X59100000Y-58061190D01*
X59100000Y-57561190D01*
X58504761Y-58037380D02*
X58552380Y-58061190D01*
X58647619Y-58061190D01*
X58695238Y-58037380D01*
X58719047Y-57989761D01*
X58719047Y-57799285D01*
X58695238Y-57751666D01*
X58647619Y-57727857D01*
X58552380Y-57727857D01*
X58504761Y-57751666D01*
X58480952Y-57799285D01*
X58480952Y-57846904D01*
X58719047Y-57894523D01*
X58076190Y-58037380D02*
X58123809Y-58061190D01*
X58219047Y-58061190D01*
X58266666Y-58037380D01*
X58290476Y-57989761D01*
X58290476Y-57799285D01*
X58266666Y-57751666D01*
X58219047Y-57727857D01*
X58123809Y-57727857D01*
X58076190Y-57751666D01*
X58052380Y-57799285D01*
X58052380Y-57846904D01*
X58290476Y-57894523D01*
X62207142Y-58557857D02*
X62207142Y-58891190D01*
X62326190Y-58367380D02*
X62445238Y-58724523D01*
X62135714Y-58724523D01*
X61588095Y-58367380D02*
X62016666Y-59010238D01*
X61159523Y-58891190D02*
X61445238Y-58891190D01*
X61302380Y-58891190D02*
X61302380Y-58391190D01*
X61350000Y-58462619D01*
X61397619Y-58510238D01*
X61445238Y-58534047D01*
X60707142Y-58391190D02*
X60945238Y-58391190D01*
X60969047Y-58629285D01*
X60945238Y-58605476D01*
X60897619Y-58581666D01*
X60778571Y-58581666D01*
X60730952Y-58605476D01*
X60707142Y-58629285D01*
X60683333Y-58676904D01*
X60683333Y-58795952D01*
X60707142Y-58843571D01*
X60730952Y-58867380D01*
X60778571Y-58891190D01*
X60897619Y-58891190D01*
X60945238Y-58867380D01*
X60969047Y-58843571D01*
X60111904Y-58367380D02*
X60540476Y-59010238D01*
X59969047Y-58438809D02*
X59945238Y-58415000D01*
X59897619Y-58391190D01*
X59778571Y-58391190D01*
X59730952Y-58415000D01*
X59707142Y-58438809D01*
X59683333Y-58486428D01*
X59683333Y-58534047D01*
X59707142Y-58605476D01*
X59992857Y-58891190D01*
X59683333Y-58891190D01*
X59373809Y-58391190D02*
X59326190Y-58391190D01*
X59278571Y-58415000D01*
X59254761Y-58438809D01*
X59230952Y-58486428D01*
X59207142Y-58581666D01*
X59207142Y-58700714D01*
X59230952Y-58795952D01*
X59254761Y-58843571D01*
X59278571Y-58867380D01*
X59326190Y-58891190D01*
X59373809Y-58891190D01*
X59421428Y-58867380D01*
X59445238Y-58843571D01*
X59469047Y-58795952D01*
X59492857Y-58700714D01*
X59492857Y-58581666D01*
X59469047Y-58486428D01*
X59445238Y-58438809D01*
X59421428Y-58415000D01*
X59373809Y-58391190D01*
X58730952Y-58891190D02*
X59016666Y-58891190D01*
X58873809Y-58891190D02*
X58873809Y-58391190D01*
X58921428Y-58462619D01*
X58969047Y-58510238D01*
X59016666Y-58534047D01*
X58492857Y-58891190D02*
X58397619Y-58891190D01*
X58349999Y-58867380D01*
X58326190Y-58843571D01*
X58278571Y-58772142D01*
X58254761Y-58676904D01*
X58254761Y-58486428D01*
X58278571Y-58438809D01*
X58302380Y-58415000D01*
X58349999Y-58391190D01*
X58445238Y-58391190D01*
X58492857Y-58415000D01*
X58516666Y-58438809D01*
X58540476Y-58486428D01*
X58540476Y-58605476D01*
X58516666Y-58653095D01*
X58492857Y-58676904D01*
X58445238Y-58700714D01*
X58349999Y-58700714D01*
X58302380Y-58676904D01*
X58278571Y-58653095D01*
X58254761Y-58605476D01*
X60754761Y-59221190D02*
X60588095Y-59721190D01*
X60421428Y-59221190D01*
X60278571Y-59268809D02*
X60254761Y-59245000D01*
X60207142Y-59221190D01*
X60088095Y-59221190D01*
X60040476Y-59245000D01*
X60016666Y-59268809D01*
X59992857Y-59316428D01*
X59992857Y-59364047D01*
X60016666Y-59435476D01*
X60302380Y-59721190D01*
X59992857Y-59721190D01*
D11*
G04 #@! TO.C,BT1*
X65500000Y-53300000D02*
G75*
G03X65500000Y-53300000I-8000000J0D01*
G01*
D12*
G04 #@! TO.C,TH1*
X67450641Y-51679905D02*
G75*
G03X68900000Y-51582867I749359J-320095D01*
G01*
G04 #@! TO.C,BT1*
D13*
X65092857Y-53214285D02*
X65021428Y-53238095D01*
X64997619Y-53261904D01*
X64973809Y-53309523D01*
X64973809Y-53380952D01*
X64997619Y-53428571D01*
X65021428Y-53452380D01*
X65069047Y-53476190D01*
X65259523Y-53476190D01*
X65259523Y-52976190D01*
X65092857Y-52976190D01*
X65045238Y-53000000D01*
X65021428Y-53023809D01*
X64997619Y-53071428D01*
X64997619Y-53119047D01*
X65021428Y-53166666D01*
X65045238Y-53190476D01*
X65092857Y-53214285D01*
X65259523Y-53214285D01*
X64830952Y-52976190D02*
X64545238Y-52976190D01*
X64688095Y-53476190D02*
X64688095Y-52976190D01*
X64116666Y-53476190D02*
X64402380Y-53476190D01*
X64259523Y-53476190D02*
X64259523Y-52976190D01*
X64307142Y-53047619D01*
X64354761Y-53095238D01*
X64402380Y-53119047D01*
G04 #@! TO.C,TH1*
X66426190Y-49657142D02*
X66426190Y-49942857D01*
X66926190Y-49800000D02*
X66426190Y-49800000D01*
X66926190Y-50109523D02*
X66426190Y-50109523D01*
X66664285Y-50109523D02*
X66664285Y-50395238D01*
X66926190Y-50395238D02*
X66426190Y-50395238D01*
X66926190Y-50895238D02*
X66926190Y-50609523D01*
X66926190Y-50752380D02*
X66426190Y-50752380D01*
X66497619Y-50704761D01*
X66545238Y-50657142D01*
X66569047Y-50609523D01*
G04 #@! TD*
M02*
