G04 #@! TF.GenerationSoftware,KiCad,Pcbnew,(5.0.2)-1*
G04 #@! TF.CreationDate,2019-04-15T20:42:24-05:00*
G04 #@! TF.ProjectId,testDesign2,74657374-4465-4736-9967-6e322e6b6963,rev?*
G04 #@! TF.SameCoordinates,Original*
G04 #@! TF.FileFunction,Soldermask,Top*
G04 #@! TF.FilePolarity,Negative*
%FSLAX46Y46*%
G04 Gerber Fmt 4.6, Leading zero omitted, Abs format (unit mm)*
G04 Created by KiCad (PCBNEW (5.0.2)-1) date 4/15/2019 8:42:24 PM*
%MOMM*%
%LPD*%
G01*
G04 APERTURE LIST*
%ADD10C,0.100000*%
G04 APERTURE END LIST*
D10*
G36*
X58945845Y-59219215D02*
X59021990Y-59250755D01*
X59036839Y-59256906D01*
X59117640Y-59310896D01*
X59118734Y-59311627D01*
X59188373Y-59381266D01*
X59188375Y-59381269D01*
X59233796Y-59449245D01*
X59243095Y-59463163D01*
X59280785Y-59554155D01*
X59300000Y-59650755D01*
X59300000Y-59749245D01*
X59280785Y-59845845D01*
X59243095Y-59936837D01*
X59188373Y-60018734D01*
X59118734Y-60088373D01*
X59118731Y-60088375D01*
X59036839Y-60143094D01*
X58945845Y-60180785D01*
X58849246Y-60200000D01*
X58750754Y-60200000D01*
X58654155Y-60180785D01*
X58563161Y-60143094D01*
X58481269Y-60088375D01*
X58481266Y-60088373D01*
X58411627Y-60018734D01*
X58356905Y-59936837D01*
X58319215Y-59845845D01*
X58300000Y-59749245D01*
X58300000Y-59650755D01*
X58319215Y-59554155D01*
X58356905Y-59463163D01*
X58366205Y-59449245D01*
X58411625Y-59381269D01*
X58411627Y-59381266D01*
X58481266Y-59311627D01*
X58482360Y-59310896D01*
X58563161Y-59256906D01*
X58578011Y-59250755D01*
X58654155Y-59219215D01*
X58750754Y-59200000D01*
X58849246Y-59200000D01*
X58945845Y-59219215D01*
X58945845Y-59219215D01*
G37*
G36*
X57245845Y-59219215D02*
X57321990Y-59250755D01*
X57336839Y-59256906D01*
X57417640Y-59310896D01*
X57418734Y-59311627D01*
X57488373Y-59381266D01*
X57488375Y-59381269D01*
X57533796Y-59449245D01*
X57543095Y-59463163D01*
X57580785Y-59554155D01*
X57600000Y-59650755D01*
X57600000Y-59749245D01*
X57580785Y-59845845D01*
X57543095Y-59936837D01*
X57488373Y-60018734D01*
X57418734Y-60088373D01*
X57418731Y-60088375D01*
X57336839Y-60143094D01*
X57245845Y-60180785D01*
X57149246Y-60200000D01*
X57050754Y-60200000D01*
X56954155Y-60180785D01*
X56863161Y-60143094D01*
X56781269Y-60088375D01*
X56781266Y-60088373D01*
X56711627Y-60018734D01*
X56656905Y-59936837D01*
X56619215Y-59845845D01*
X56600000Y-59749245D01*
X56600000Y-59650755D01*
X56619215Y-59554155D01*
X56656905Y-59463163D01*
X56666205Y-59449245D01*
X56711625Y-59381269D01*
X56711627Y-59381266D01*
X56781266Y-59311627D01*
X56782360Y-59310896D01*
X56863161Y-59256906D01*
X56878011Y-59250755D01*
X56954155Y-59219215D01*
X57050754Y-59200000D01*
X57149246Y-59200000D01*
X57245845Y-59219215D01*
X57245845Y-59219215D01*
G37*
G36*
X52995845Y-58919215D02*
X53086839Y-58956906D01*
X53123296Y-58981266D01*
X53168734Y-59011627D01*
X53238373Y-59081266D01*
X53238375Y-59081269D01*
X53293094Y-59163161D01*
X53330785Y-59254155D01*
X53350000Y-59350754D01*
X53350000Y-59449246D01*
X53330785Y-59545845D01*
X53293094Y-59636839D01*
X53258660Y-59688373D01*
X53238373Y-59718734D01*
X53168734Y-59788373D01*
X53168731Y-59788375D01*
X53086839Y-59843094D01*
X52995845Y-59880785D01*
X52899246Y-59900000D01*
X52800754Y-59900000D01*
X52704155Y-59880785D01*
X52613161Y-59843094D01*
X52531269Y-59788375D01*
X52531266Y-59788373D01*
X52461627Y-59718734D01*
X52441340Y-59688373D01*
X52406906Y-59636839D01*
X52369215Y-59545845D01*
X52350000Y-59449246D01*
X52350000Y-59350754D01*
X52369215Y-59254155D01*
X52406906Y-59163161D01*
X52461625Y-59081269D01*
X52461627Y-59081266D01*
X52531266Y-59011627D01*
X52576704Y-58981266D01*
X52613161Y-58956906D01*
X52704155Y-58919215D01*
X52800754Y-58900000D01*
X52899246Y-58900000D01*
X52995845Y-58919215D01*
X52995845Y-58919215D01*
G37*
G36*
X60511071Y-58812298D02*
X60545845Y-58819215D01*
X60610136Y-58845845D01*
X60636839Y-58856906D01*
X60638431Y-58857970D01*
X60718734Y-58911627D01*
X60788373Y-58981266D01*
X60788375Y-58981269D01*
X60813409Y-59018734D01*
X60843095Y-59063163D01*
X60850593Y-59081266D01*
X60880785Y-59154155D01*
X60888531Y-59193094D01*
X60900000Y-59250755D01*
X60900000Y-59349245D01*
X60880785Y-59445845D01*
X60873613Y-59463161D01*
X60843094Y-59536839D01*
X60789104Y-59617640D01*
X60788373Y-59618734D01*
X60718734Y-59688373D01*
X60718731Y-59688375D01*
X60636839Y-59743094D01*
X60636838Y-59743095D01*
X60636837Y-59743095D01*
X60621987Y-59749246D01*
X60545845Y-59780785D01*
X60449246Y-59800000D01*
X60350754Y-59800000D01*
X60254155Y-59780785D01*
X60178013Y-59749246D01*
X60163163Y-59743095D01*
X60163162Y-59743095D01*
X60163161Y-59743094D01*
X60081269Y-59688375D01*
X60081266Y-59688373D01*
X60011627Y-59618734D01*
X60010896Y-59617640D01*
X59956906Y-59536839D01*
X59926388Y-59463161D01*
X59919215Y-59445845D01*
X59900000Y-59349245D01*
X59900000Y-59250755D01*
X59911470Y-59193094D01*
X59919215Y-59154155D01*
X59949407Y-59081266D01*
X59956905Y-59063163D01*
X59986592Y-59018734D01*
X60011625Y-58981269D01*
X60011627Y-58981266D01*
X60081266Y-58911627D01*
X60161569Y-58857970D01*
X60163161Y-58856906D01*
X60189865Y-58845845D01*
X60254155Y-58819215D01*
X60288929Y-58812298D01*
X60350754Y-58800000D01*
X60449246Y-58800000D01*
X60511071Y-58812298D01*
X60511071Y-58812298D01*
G37*
G36*
X51695845Y-58269215D02*
X51786839Y-58306906D01*
X51867640Y-58360896D01*
X51868734Y-58361627D01*
X51938373Y-58431266D01*
X51938375Y-58431269D01*
X51993094Y-58513161D01*
X52030785Y-58604155D01*
X52050000Y-58700754D01*
X52050000Y-58799246D01*
X52030785Y-58895845D01*
X51993095Y-58986837D01*
X51938373Y-59068734D01*
X51868734Y-59138373D01*
X51868731Y-59138375D01*
X51786839Y-59193094D01*
X51786838Y-59193095D01*
X51786837Y-59193095D01*
X51695845Y-59230785D01*
X51599246Y-59250000D01*
X51500754Y-59250000D01*
X51404155Y-59230785D01*
X51313163Y-59193095D01*
X51313162Y-59193095D01*
X51313161Y-59193094D01*
X51231269Y-59138375D01*
X51231266Y-59138373D01*
X51161627Y-59068734D01*
X51106905Y-58986837D01*
X51069215Y-58895845D01*
X51050000Y-58799246D01*
X51050000Y-58700754D01*
X51069215Y-58604155D01*
X51106906Y-58513161D01*
X51161625Y-58431269D01*
X51161627Y-58431266D01*
X51231266Y-58361627D01*
X51232360Y-58360896D01*
X51313161Y-58306906D01*
X51404155Y-58269215D01*
X51500754Y-58250000D01*
X51599246Y-58250000D01*
X51695845Y-58269215D01*
X51695845Y-58269215D01*
G37*
G36*
X62145845Y-58219215D02*
X62220167Y-58250000D01*
X62236839Y-58256906D01*
X62274439Y-58282030D01*
X62318734Y-58311627D01*
X62388373Y-58381266D01*
X62388375Y-58381269D01*
X62443094Y-58463161D01*
X62480785Y-58554155D01*
X62500000Y-58650754D01*
X62500000Y-58749246D01*
X62480785Y-58845845D01*
X62443094Y-58936839D01*
X62409686Y-58986837D01*
X62388373Y-59018734D01*
X62318734Y-59088373D01*
X62318731Y-59088375D01*
X62236839Y-59143094D01*
X62236838Y-59143095D01*
X62236837Y-59143095D01*
X62188393Y-59163161D01*
X62145845Y-59180785D01*
X62049246Y-59200000D01*
X61950754Y-59200000D01*
X61854155Y-59180785D01*
X61811607Y-59163161D01*
X61763163Y-59143095D01*
X61763162Y-59143095D01*
X61763161Y-59143094D01*
X61681269Y-59088375D01*
X61681266Y-59088373D01*
X61611627Y-59018734D01*
X61590314Y-58986837D01*
X61556906Y-58936839D01*
X61519215Y-58845845D01*
X61500000Y-58749246D01*
X61500000Y-58650754D01*
X61519215Y-58554155D01*
X61556906Y-58463161D01*
X61611625Y-58381269D01*
X61611627Y-58381266D01*
X61681266Y-58311627D01*
X61725561Y-58282030D01*
X61763161Y-58256906D01*
X61779834Y-58250000D01*
X61854155Y-58219215D01*
X61950754Y-58200000D01*
X62049246Y-58200000D01*
X62145845Y-58219215D01*
X62145845Y-58219215D01*
G37*
G36*
X55651463Y-58277226D02*
X55667298Y-58282030D01*
X55681886Y-58289827D01*
X55694676Y-58300324D01*
X55705173Y-58313114D01*
X55712970Y-58327702D01*
X55717774Y-58343537D01*
X55720000Y-58366140D01*
X55720000Y-58773860D01*
X55717774Y-58796463D01*
X55712970Y-58812298D01*
X55705173Y-58826886D01*
X55694676Y-58839676D01*
X55681886Y-58850173D01*
X55667298Y-58857970D01*
X55651463Y-58862774D01*
X55628860Y-58865000D01*
X55171140Y-58865000D01*
X55148537Y-58862774D01*
X55132702Y-58857970D01*
X55118114Y-58850173D01*
X55105324Y-58839676D01*
X55094827Y-58826886D01*
X55087030Y-58812298D01*
X55082226Y-58796463D01*
X55080000Y-58773860D01*
X55080000Y-58366140D01*
X55082226Y-58343537D01*
X55087030Y-58327702D01*
X55094827Y-58313114D01*
X55105324Y-58300324D01*
X55118114Y-58289827D01*
X55132702Y-58282030D01*
X55148537Y-58277226D01*
X55171140Y-58275000D01*
X55628860Y-58275000D01*
X55651463Y-58277226D01*
X55651463Y-58277226D01*
G37*
G36*
X54651463Y-58277226D02*
X54667298Y-58282030D01*
X54681886Y-58289827D01*
X54694676Y-58300324D01*
X54705173Y-58313114D01*
X54712970Y-58327702D01*
X54717774Y-58343537D01*
X54720000Y-58366140D01*
X54720000Y-58773860D01*
X54717774Y-58796463D01*
X54712970Y-58812298D01*
X54705173Y-58826886D01*
X54694676Y-58839676D01*
X54681886Y-58850173D01*
X54667298Y-58857970D01*
X54651463Y-58862774D01*
X54628860Y-58865000D01*
X54171140Y-58865000D01*
X54148537Y-58862774D01*
X54132702Y-58857970D01*
X54118114Y-58850173D01*
X54105324Y-58839676D01*
X54094827Y-58826886D01*
X54087030Y-58812298D01*
X54082226Y-58796463D01*
X54080000Y-58773860D01*
X54080000Y-58366140D01*
X54082226Y-58343537D01*
X54087030Y-58327702D01*
X54094827Y-58313114D01*
X54105324Y-58300324D01*
X54118114Y-58289827D01*
X54132702Y-58282030D01*
X54148537Y-58277226D01*
X54171140Y-58275000D01*
X54628860Y-58275000D01*
X54651463Y-58277226D01*
X54651463Y-58277226D01*
G37*
G36*
X50051463Y-57407226D02*
X50067298Y-57412030D01*
X50081886Y-57419827D01*
X50094676Y-57430324D01*
X50105173Y-57443114D01*
X50112970Y-57457702D01*
X50117774Y-57473537D01*
X50120000Y-57496140D01*
X50120000Y-57903860D01*
X50117774Y-57926463D01*
X50112970Y-57942298D01*
X50105173Y-57956886D01*
X50094676Y-57969676D01*
X50081886Y-57980173D01*
X50067298Y-57987970D01*
X50051463Y-57992774D01*
X50028860Y-57995000D01*
X49571140Y-57995000D01*
X49548537Y-57992774D01*
X49532702Y-57987970D01*
X49518114Y-57980173D01*
X49505324Y-57969676D01*
X49494827Y-57956886D01*
X49487030Y-57942298D01*
X49482226Y-57926463D01*
X49480000Y-57903860D01*
X49480000Y-57496140D01*
X49482226Y-57473537D01*
X49487030Y-57457702D01*
X49494827Y-57443114D01*
X49505324Y-57430324D01*
X49518114Y-57419827D01*
X49532702Y-57412030D01*
X49548537Y-57407226D01*
X49571140Y-57405000D01*
X50028860Y-57405000D01*
X50051463Y-57407226D01*
X50051463Y-57407226D01*
G37*
G36*
X52400000Y-57900000D02*
X50600000Y-57900000D01*
X50600000Y-56900000D01*
X52400000Y-56900000D01*
X52400000Y-57900000D01*
X52400000Y-57900000D01*
G37*
G36*
X54651463Y-57307226D02*
X54667298Y-57312030D01*
X54681886Y-57319827D01*
X54694676Y-57330324D01*
X54705173Y-57343114D01*
X54712970Y-57357702D01*
X54717774Y-57373537D01*
X54720000Y-57396140D01*
X54720000Y-57803860D01*
X54717774Y-57826463D01*
X54712970Y-57842298D01*
X54705173Y-57856886D01*
X54694676Y-57869676D01*
X54681886Y-57880173D01*
X54667298Y-57887970D01*
X54651463Y-57892774D01*
X54628860Y-57895000D01*
X54171140Y-57895000D01*
X54148537Y-57892774D01*
X54132702Y-57887970D01*
X54118114Y-57880173D01*
X54105324Y-57869676D01*
X54094827Y-57856886D01*
X54087030Y-57842298D01*
X54082226Y-57826463D01*
X54080000Y-57803860D01*
X54080000Y-57396140D01*
X54082226Y-57373537D01*
X54087030Y-57357702D01*
X54094827Y-57343114D01*
X54105324Y-57330324D01*
X54118114Y-57319827D01*
X54132702Y-57312030D01*
X54148537Y-57307226D01*
X54171140Y-57305000D01*
X54628860Y-57305000D01*
X54651463Y-57307226D01*
X54651463Y-57307226D01*
G37*
G36*
X55651463Y-57307226D02*
X55667298Y-57312030D01*
X55681886Y-57319827D01*
X55694676Y-57330324D01*
X55705173Y-57343114D01*
X55712970Y-57357702D01*
X55717774Y-57373537D01*
X55720000Y-57396140D01*
X55720000Y-57803860D01*
X55717774Y-57826463D01*
X55712970Y-57842298D01*
X55705173Y-57856886D01*
X55694676Y-57869676D01*
X55681886Y-57880173D01*
X55667298Y-57887970D01*
X55651463Y-57892774D01*
X55628860Y-57895000D01*
X55171140Y-57895000D01*
X55148537Y-57892774D01*
X55132702Y-57887970D01*
X55118114Y-57880173D01*
X55105324Y-57869676D01*
X55094827Y-57856886D01*
X55087030Y-57842298D01*
X55082226Y-57826463D01*
X55080000Y-57803860D01*
X55080000Y-57396140D01*
X55082226Y-57373537D01*
X55087030Y-57357702D01*
X55094827Y-57343114D01*
X55105324Y-57330324D01*
X55118114Y-57319827D01*
X55132702Y-57312030D01*
X55148537Y-57307226D01*
X55171140Y-57305000D01*
X55628860Y-57305000D01*
X55651463Y-57307226D01*
X55651463Y-57307226D01*
G37*
G36*
X61311616Y-56828595D02*
X61340813Y-56837452D01*
X61367718Y-56851833D01*
X61391308Y-56871192D01*
X61410667Y-56894782D01*
X61425048Y-56921687D01*
X61433905Y-56950884D01*
X61437500Y-56987390D01*
X61437500Y-57612610D01*
X61433905Y-57649116D01*
X61425048Y-57678313D01*
X61410667Y-57705218D01*
X61391308Y-57728808D01*
X61367718Y-57748167D01*
X61340813Y-57762548D01*
X61311616Y-57771405D01*
X61275110Y-57775000D01*
X60724890Y-57775000D01*
X60688384Y-57771405D01*
X60659187Y-57762548D01*
X60632282Y-57748167D01*
X60608692Y-57728808D01*
X60589333Y-57705218D01*
X60574952Y-57678313D01*
X60566095Y-57649116D01*
X60562500Y-57612610D01*
X60562500Y-56987390D01*
X60566095Y-56950884D01*
X60574952Y-56921687D01*
X60589333Y-56894782D01*
X60608692Y-56871192D01*
X60632282Y-56851833D01*
X60659187Y-56837452D01*
X60688384Y-56828595D01*
X60724890Y-56825000D01*
X61275110Y-56825000D01*
X61311616Y-56828595D01*
X61311616Y-56828595D01*
G37*
G36*
X59736616Y-56828595D02*
X59765813Y-56837452D01*
X59792718Y-56851833D01*
X59816308Y-56871192D01*
X59835667Y-56894782D01*
X59850048Y-56921687D01*
X59858905Y-56950884D01*
X59862500Y-56987390D01*
X59862500Y-57612610D01*
X59858905Y-57649116D01*
X59850048Y-57678313D01*
X59835667Y-57705218D01*
X59816308Y-57728808D01*
X59792718Y-57748167D01*
X59765813Y-57762548D01*
X59736616Y-57771405D01*
X59700110Y-57775000D01*
X59149890Y-57775000D01*
X59113384Y-57771405D01*
X59084187Y-57762548D01*
X59057282Y-57748167D01*
X59033692Y-57728808D01*
X59014333Y-57705218D01*
X58999952Y-57678313D01*
X58991095Y-57649116D01*
X58987500Y-57612610D01*
X58987500Y-56987390D01*
X58991095Y-56950884D01*
X58999952Y-56921687D01*
X59014333Y-56894782D01*
X59033692Y-56871192D01*
X59057282Y-56851833D01*
X59084187Y-56837452D01*
X59113384Y-56828595D01*
X59149890Y-56825000D01*
X59700110Y-56825000D01*
X59736616Y-56828595D01*
X59736616Y-56828595D01*
G37*
G36*
X63153992Y-56716576D02*
X63187883Y-56726857D01*
X63219111Y-56743548D01*
X63246485Y-56766015D01*
X63268952Y-56793389D01*
X63285643Y-56824617D01*
X63295924Y-56858508D01*
X63300000Y-56899891D01*
X63300000Y-57500109D01*
X63295924Y-57541492D01*
X63285643Y-57575383D01*
X63268952Y-57606611D01*
X63246485Y-57633985D01*
X63219111Y-57656452D01*
X63187883Y-57673143D01*
X63153992Y-57683424D01*
X63112609Y-57687500D01*
X62087391Y-57687500D01*
X62046008Y-57683424D01*
X62012117Y-57673143D01*
X61980889Y-57656452D01*
X61953515Y-57633985D01*
X61931048Y-57606611D01*
X61914357Y-57575383D01*
X61904076Y-57541492D01*
X61900000Y-57500109D01*
X61900000Y-56899891D01*
X61904076Y-56858508D01*
X61914357Y-56824617D01*
X61931048Y-56793389D01*
X61953515Y-56766015D01*
X61980889Y-56743548D01*
X62012117Y-56726857D01*
X62046008Y-56716576D01*
X62087391Y-56712500D01*
X63112609Y-56712500D01*
X63153992Y-56716576D01*
X63153992Y-56716576D01*
G37*
G36*
X50051463Y-56437226D02*
X50067298Y-56442030D01*
X50081886Y-56449827D01*
X50094676Y-56460324D01*
X50105173Y-56473114D01*
X50112970Y-56487702D01*
X50117774Y-56503537D01*
X50120000Y-56526140D01*
X50120000Y-56933860D01*
X50117774Y-56956463D01*
X50112970Y-56972298D01*
X50105173Y-56986886D01*
X50094676Y-56999676D01*
X50081886Y-57010173D01*
X50067298Y-57017970D01*
X50051463Y-57022774D01*
X50028860Y-57025000D01*
X49571140Y-57025000D01*
X49548537Y-57022774D01*
X49532702Y-57017970D01*
X49518114Y-57010173D01*
X49505324Y-56999676D01*
X49494827Y-56986886D01*
X49487030Y-56972298D01*
X49482226Y-56956463D01*
X49480000Y-56933860D01*
X49480000Y-56526140D01*
X49482226Y-56503537D01*
X49487030Y-56487702D01*
X49494827Y-56473114D01*
X49505324Y-56460324D01*
X49518114Y-56449827D01*
X49532702Y-56442030D01*
X49548537Y-56437226D01*
X49571140Y-56435000D01*
X50028860Y-56435000D01*
X50051463Y-56437226D01*
X50051463Y-56437226D01*
G37*
G36*
X64445845Y-55919215D02*
X64536839Y-55956906D01*
X64617640Y-56010896D01*
X64618734Y-56011627D01*
X64688373Y-56081266D01*
X64688375Y-56081269D01*
X64734374Y-56150110D01*
X64743095Y-56163163D01*
X64764683Y-56215281D01*
X64780785Y-56254155D01*
X64800000Y-56350754D01*
X64800000Y-56449246D01*
X64789794Y-56500553D01*
X64780785Y-56545845D01*
X64743095Y-56636837D01*
X64688373Y-56718734D01*
X64618734Y-56788373D01*
X64618731Y-56788375D01*
X64536839Y-56843094D01*
X64536838Y-56843095D01*
X64536837Y-56843095D01*
X64488852Y-56862971D01*
X64445845Y-56880785D01*
X64349246Y-56900000D01*
X64250754Y-56900000D01*
X64154155Y-56880785D01*
X64111148Y-56862971D01*
X64063163Y-56843095D01*
X64063162Y-56843095D01*
X64063161Y-56843094D01*
X63981269Y-56788375D01*
X63981266Y-56788373D01*
X63911627Y-56718734D01*
X63856905Y-56636837D01*
X63819215Y-56545845D01*
X63810206Y-56500553D01*
X63800000Y-56449246D01*
X63800000Y-56350754D01*
X63819215Y-56254155D01*
X63835317Y-56215281D01*
X63856905Y-56163163D01*
X63865627Y-56150110D01*
X63911625Y-56081269D01*
X63911627Y-56081266D01*
X63981266Y-56011627D01*
X63982360Y-56010896D01*
X64063161Y-55956906D01*
X64154155Y-55919215D01*
X64250754Y-55900000D01*
X64349246Y-55900000D01*
X64445845Y-55919215D01*
X64445845Y-55919215D01*
G37*
G36*
X54706445Y-51750009D02*
X54720696Y-51764261D01*
X54741070Y-51777875D01*
X54763709Y-51787254D01*
X54787742Y-51792036D01*
X54812246Y-51792037D01*
X54836280Y-51787257D01*
X54858920Y-51777881D01*
X54879295Y-51764268D01*
X54893554Y-51750009D01*
X54893643Y-51750000D01*
X55106357Y-51750000D01*
X55106445Y-51750009D01*
X55120696Y-51764261D01*
X55141070Y-51777875D01*
X55163709Y-51787254D01*
X55187742Y-51792036D01*
X55212246Y-51792037D01*
X55236280Y-51787257D01*
X55258920Y-51777881D01*
X55279295Y-51764268D01*
X55293554Y-51750009D01*
X55293643Y-51750000D01*
X55506357Y-51750000D01*
X55506445Y-51750009D01*
X55520696Y-51764261D01*
X55541070Y-51777875D01*
X55563709Y-51787254D01*
X55587742Y-51792036D01*
X55612246Y-51792037D01*
X55636280Y-51787257D01*
X55658920Y-51777881D01*
X55679295Y-51764268D01*
X55693554Y-51750009D01*
X55693643Y-51750000D01*
X55906357Y-51750000D01*
X55906445Y-51750009D01*
X55920696Y-51764261D01*
X55941070Y-51777875D01*
X55963709Y-51787254D01*
X55987742Y-51792036D01*
X56012246Y-51792037D01*
X56036280Y-51787257D01*
X56058920Y-51777881D01*
X56079295Y-51764268D01*
X56093554Y-51750009D01*
X56093643Y-51750000D01*
X56306357Y-51750000D01*
X56306445Y-51750009D01*
X56320696Y-51764261D01*
X56341070Y-51777875D01*
X56363709Y-51787254D01*
X56387742Y-51792036D01*
X56412246Y-51792037D01*
X56436280Y-51787257D01*
X56458920Y-51777881D01*
X56479295Y-51764268D01*
X56493554Y-51750009D01*
X56493643Y-51750000D01*
X56706357Y-51750000D01*
X56706445Y-51750009D01*
X56720696Y-51764261D01*
X56741070Y-51777875D01*
X56763709Y-51787254D01*
X56787742Y-51792036D01*
X56812246Y-51792037D01*
X56836280Y-51787257D01*
X56858920Y-51777881D01*
X56879295Y-51764268D01*
X56893554Y-51750009D01*
X56893643Y-51750000D01*
X57106357Y-51750000D01*
X57106445Y-51750009D01*
X57120696Y-51764261D01*
X57141070Y-51777875D01*
X57163709Y-51787254D01*
X57187742Y-51792036D01*
X57212246Y-51792037D01*
X57236280Y-51787257D01*
X57258920Y-51777881D01*
X57279295Y-51764268D01*
X57293554Y-51750009D01*
X57293643Y-51750000D01*
X57500000Y-51750000D01*
X57500000Y-52450000D01*
X57459474Y-52450000D01*
X57435088Y-52452402D01*
X57411639Y-52459515D01*
X57390028Y-52471066D01*
X57371086Y-52486612D01*
X57355540Y-52505554D01*
X57343989Y-52527165D01*
X57336876Y-52550614D01*
X57334474Y-52575000D01*
X57336876Y-52599386D01*
X57343989Y-52622835D01*
X57355540Y-52644446D01*
X57371086Y-52663388D01*
X57380175Y-52671627D01*
X57406648Y-52693352D01*
X57428373Y-52719825D01*
X57445700Y-52737152D01*
X57466075Y-52750766D01*
X57488714Y-52760143D01*
X57512747Y-52764924D01*
X57537252Y-52764924D01*
X57561285Y-52760144D01*
X57583924Y-52750766D01*
X57604299Y-52737153D01*
X57621626Y-52719826D01*
X57635240Y-52699451D01*
X57644617Y-52676812D01*
X57649398Y-52652779D01*
X57650000Y-52640526D01*
X57650000Y-52600000D01*
X58350000Y-52600000D01*
X58350000Y-52806357D01*
X58349991Y-52806445D01*
X58335739Y-52820696D01*
X58322125Y-52841070D01*
X58312746Y-52863709D01*
X58307964Y-52887742D01*
X58307963Y-52912246D01*
X58312743Y-52936280D01*
X58322119Y-52958920D01*
X58335732Y-52979295D01*
X58349991Y-52993554D01*
X58350000Y-52993643D01*
X58350000Y-53206357D01*
X58349991Y-53206445D01*
X58335739Y-53220696D01*
X58322125Y-53241070D01*
X58312746Y-53263709D01*
X58307964Y-53287742D01*
X58307963Y-53312246D01*
X58312743Y-53336280D01*
X58322119Y-53358920D01*
X58335732Y-53379295D01*
X58349991Y-53393554D01*
X58350000Y-53393643D01*
X58350000Y-53606357D01*
X58349991Y-53606445D01*
X58335739Y-53620696D01*
X58322125Y-53641070D01*
X58312746Y-53663709D01*
X58307964Y-53687742D01*
X58307963Y-53712246D01*
X58312743Y-53736280D01*
X58322119Y-53758920D01*
X58335732Y-53779295D01*
X58349991Y-53793554D01*
X58350000Y-53793643D01*
X58350000Y-54006357D01*
X58349991Y-54006445D01*
X58335739Y-54020696D01*
X58322125Y-54041070D01*
X58312746Y-54063709D01*
X58307964Y-54087742D01*
X58307963Y-54112246D01*
X58312743Y-54136280D01*
X58322119Y-54158920D01*
X58335732Y-54179295D01*
X58349991Y-54193554D01*
X58350000Y-54193643D01*
X58350000Y-54406357D01*
X58349991Y-54406445D01*
X58335739Y-54420696D01*
X58322125Y-54441070D01*
X58312746Y-54463709D01*
X58307964Y-54487742D01*
X58307963Y-54512246D01*
X58312743Y-54536280D01*
X58322119Y-54558920D01*
X58335732Y-54579295D01*
X58349991Y-54593554D01*
X58350000Y-54593643D01*
X58350000Y-54806357D01*
X58349991Y-54806445D01*
X58335739Y-54820696D01*
X58322125Y-54841070D01*
X58312746Y-54863709D01*
X58307964Y-54887742D01*
X58307963Y-54912246D01*
X58312743Y-54936280D01*
X58322119Y-54958920D01*
X58335732Y-54979295D01*
X58349991Y-54993554D01*
X58350000Y-54993643D01*
X58350000Y-55206357D01*
X58349991Y-55206445D01*
X58335739Y-55220696D01*
X58322125Y-55241070D01*
X58312746Y-55263709D01*
X58307964Y-55287742D01*
X58307963Y-55312246D01*
X58312743Y-55336280D01*
X58322119Y-55358920D01*
X58335732Y-55379295D01*
X58349991Y-55393554D01*
X58350000Y-55393643D01*
X58350000Y-55600000D01*
X57650000Y-55600000D01*
X57650000Y-55559474D01*
X57647598Y-55535088D01*
X57640485Y-55511639D01*
X57628934Y-55490028D01*
X57613388Y-55471086D01*
X57594446Y-55455540D01*
X57572835Y-55443989D01*
X57549386Y-55436876D01*
X57525000Y-55434474D01*
X57500614Y-55436876D01*
X57477165Y-55443989D01*
X57455554Y-55455540D01*
X57436612Y-55471086D01*
X57428373Y-55480175D01*
X57406648Y-55506648D01*
X57380175Y-55528373D01*
X57362848Y-55545700D01*
X57349234Y-55566075D01*
X57339857Y-55588714D01*
X57335076Y-55612747D01*
X57335076Y-55637252D01*
X57339856Y-55661285D01*
X57349234Y-55683924D01*
X57362847Y-55704299D01*
X57380174Y-55721626D01*
X57400549Y-55735240D01*
X57423188Y-55744617D01*
X57447221Y-55749398D01*
X57459474Y-55750000D01*
X57500000Y-55750000D01*
X57500000Y-56450000D01*
X57293643Y-56450000D01*
X57293555Y-56449991D01*
X57279304Y-56435739D01*
X57258930Y-56422125D01*
X57236291Y-56412746D01*
X57212258Y-56407964D01*
X57187754Y-56407963D01*
X57163720Y-56412743D01*
X57141080Y-56422119D01*
X57120705Y-56435732D01*
X57106446Y-56449991D01*
X57106357Y-56450000D01*
X56893643Y-56450000D01*
X56893555Y-56449991D01*
X56879304Y-56435739D01*
X56858930Y-56422125D01*
X56836291Y-56412746D01*
X56812258Y-56407964D01*
X56787754Y-56407963D01*
X56763720Y-56412743D01*
X56741080Y-56422119D01*
X56720705Y-56435732D01*
X56706446Y-56449991D01*
X56706357Y-56450000D01*
X56493643Y-56450000D01*
X56493555Y-56449991D01*
X56479304Y-56435739D01*
X56458930Y-56422125D01*
X56436291Y-56412746D01*
X56412258Y-56407964D01*
X56387754Y-56407963D01*
X56363720Y-56412743D01*
X56341080Y-56422119D01*
X56320705Y-56435732D01*
X56306446Y-56449991D01*
X56306357Y-56450000D01*
X56093643Y-56450000D01*
X56093555Y-56449991D01*
X56079304Y-56435739D01*
X56058930Y-56422125D01*
X56036291Y-56412746D01*
X56012258Y-56407964D01*
X55987754Y-56407963D01*
X55963720Y-56412743D01*
X55941080Y-56422119D01*
X55920705Y-56435732D01*
X55906446Y-56449991D01*
X55906357Y-56450000D01*
X55693643Y-56450000D01*
X55693555Y-56449991D01*
X55679304Y-56435739D01*
X55658930Y-56422125D01*
X55636291Y-56412746D01*
X55612258Y-56407964D01*
X55587754Y-56407963D01*
X55563720Y-56412743D01*
X55541080Y-56422119D01*
X55520705Y-56435732D01*
X55506446Y-56449991D01*
X55506357Y-56450000D01*
X55293643Y-56450000D01*
X55293555Y-56449991D01*
X55279304Y-56435739D01*
X55258930Y-56422125D01*
X55236291Y-56412746D01*
X55212258Y-56407964D01*
X55187754Y-56407963D01*
X55163720Y-56412743D01*
X55141080Y-56422119D01*
X55120705Y-56435732D01*
X55106446Y-56449991D01*
X55106357Y-56450000D01*
X54893643Y-56450000D01*
X54893555Y-56449991D01*
X54879304Y-56435739D01*
X54858930Y-56422125D01*
X54836291Y-56412746D01*
X54812258Y-56407964D01*
X54787754Y-56407963D01*
X54763720Y-56412743D01*
X54741080Y-56422119D01*
X54720705Y-56435732D01*
X54706446Y-56449991D01*
X54706357Y-56450000D01*
X54500000Y-56450000D01*
X54500000Y-55750000D01*
X54540526Y-55750000D01*
X54564912Y-55747598D01*
X54588361Y-55740485D01*
X54609972Y-55728934D01*
X54628914Y-55713388D01*
X54644460Y-55694446D01*
X54656011Y-55672835D01*
X54663124Y-55649386D01*
X54665526Y-55625000D01*
X54663124Y-55600614D01*
X54656011Y-55577165D01*
X54644460Y-55555554D01*
X54628914Y-55536612D01*
X54619825Y-55528373D01*
X54593352Y-55506648D01*
X54571627Y-55480175D01*
X54554300Y-55462848D01*
X54533925Y-55449234D01*
X54511286Y-55439857D01*
X54487253Y-55435076D01*
X54462748Y-55435076D01*
X54438715Y-55439856D01*
X54416076Y-55449234D01*
X54395701Y-55462847D01*
X54378374Y-55480174D01*
X54364760Y-55500549D01*
X54355383Y-55523188D01*
X54350602Y-55547221D01*
X54350000Y-55559474D01*
X54350000Y-55600000D01*
X53650000Y-55600000D01*
X53650000Y-55393643D01*
X53650009Y-55393555D01*
X53664261Y-55379304D01*
X53677875Y-55358930D01*
X53687254Y-55336291D01*
X53692036Y-55312258D01*
X53692037Y-55287754D01*
X53687257Y-55263720D01*
X53677881Y-55241080D01*
X53664268Y-55220705D01*
X53650009Y-55206446D01*
X53650000Y-55206357D01*
X53650000Y-54993643D01*
X53650009Y-54993555D01*
X53664261Y-54979304D01*
X53677875Y-54958930D01*
X53687254Y-54936291D01*
X53692036Y-54912258D01*
X53692037Y-54887754D01*
X53687257Y-54863720D01*
X53677881Y-54841080D01*
X53664268Y-54820705D01*
X53650009Y-54806446D01*
X53650000Y-54806357D01*
X53650000Y-54593643D01*
X53650009Y-54593555D01*
X53664261Y-54579304D01*
X53677875Y-54558930D01*
X53687254Y-54536291D01*
X53692036Y-54512258D01*
X53692037Y-54487754D01*
X53687257Y-54463720D01*
X53677881Y-54441080D01*
X53664268Y-54420705D01*
X53650009Y-54406446D01*
X53650000Y-54406357D01*
X53650000Y-54193643D01*
X53650009Y-54193555D01*
X53664261Y-54179304D01*
X53677875Y-54158930D01*
X53687254Y-54136291D01*
X53692036Y-54112258D01*
X53692037Y-54087754D01*
X53687257Y-54063720D01*
X53677881Y-54041080D01*
X53664268Y-54020705D01*
X53650009Y-54006446D01*
X53650000Y-54006357D01*
X53650000Y-53793643D01*
X53650009Y-53793555D01*
X53664261Y-53779304D01*
X53677875Y-53758930D01*
X53687254Y-53736291D01*
X53692036Y-53712258D01*
X53692037Y-53687754D01*
X53687257Y-53663720D01*
X53677881Y-53641080D01*
X53664268Y-53620705D01*
X53650009Y-53606446D01*
X53650000Y-53606357D01*
X53650000Y-53393643D01*
X53650009Y-53393555D01*
X53664261Y-53379304D01*
X53677875Y-53358930D01*
X53687254Y-53336291D01*
X53692036Y-53312258D01*
X53692037Y-53287754D01*
X53687257Y-53263720D01*
X53677881Y-53241080D01*
X53664268Y-53220705D01*
X53650009Y-53206446D01*
X53650000Y-53206357D01*
X53650000Y-52993643D01*
X53650009Y-52993555D01*
X53664261Y-52979304D01*
X53677875Y-52958930D01*
X53687254Y-52936291D01*
X53692036Y-52912258D01*
X53692037Y-52887754D01*
X53687257Y-52863720D01*
X53677881Y-52841080D01*
X53664268Y-52820705D01*
X53650009Y-52806446D01*
X53650000Y-52806357D01*
X53650000Y-52600000D01*
X54350000Y-52600000D01*
X54350000Y-52640526D01*
X54352402Y-52664912D01*
X54359515Y-52688361D01*
X54371066Y-52709972D01*
X54386612Y-52728914D01*
X54405554Y-52744460D01*
X54427165Y-52756011D01*
X54450614Y-52763124D01*
X54475000Y-52765526D01*
X54499386Y-52763124D01*
X54522835Y-52756011D01*
X54544446Y-52744460D01*
X54563388Y-52728914D01*
X54571627Y-52719825D01*
X54593352Y-52693352D01*
X54619825Y-52671627D01*
X54637152Y-52654300D01*
X54650766Y-52633925D01*
X54660143Y-52611286D01*
X54664924Y-52587253D01*
X54664924Y-52562748D01*
X54660144Y-52538715D01*
X54650766Y-52516076D01*
X54637153Y-52495701D01*
X54619826Y-52478374D01*
X54599451Y-52464760D01*
X54576812Y-52455383D01*
X54552779Y-52450602D01*
X54540526Y-52450000D01*
X54500000Y-52450000D01*
X54500000Y-51750000D01*
X54706357Y-51750000D01*
X54706445Y-51750009D01*
X54706445Y-51750009D01*
G37*
G36*
X61149116Y-55441095D02*
X61178313Y-55449952D01*
X61205218Y-55464333D01*
X61228808Y-55483692D01*
X61248167Y-55507282D01*
X61262548Y-55534187D01*
X61271405Y-55563384D01*
X61275000Y-55599890D01*
X61275000Y-56150110D01*
X61271405Y-56186616D01*
X61262548Y-56215813D01*
X61248167Y-56242718D01*
X61228808Y-56266308D01*
X61205218Y-56285667D01*
X61178313Y-56300048D01*
X61149116Y-56308905D01*
X61112610Y-56312500D01*
X60487390Y-56312500D01*
X60450884Y-56308905D01*
X60421687Y-56300048D01*
X60394782Y-56285667D01*
X60371192Y-56266308D01*
X60351833Y-56242718D01*
X60337452Y-56215813D01*
X60328595Y-56186616D01*
X60325000Y-56150110D01*
X60325000Y-55599890D01*
X60328595Y-55563384D01*
X60337452Y-55534187D01*
X60351833Y-55507282D01*
X60371192Y-55483692D01*
X60394782Y-55464333D01*
X60421687Y-55449952D01*
X60450884Y-55441095D01*
X60487390Y-55437500D01*
X61112610Y-55437500D01*
X61149116Y-55441095D01*
X61149116Y-55441095D01*
G37*
G36*
X59849116Y-55441095D02*
X59878313Y-55449952D01*
X59905218Y-55464333D01*
X59928808Y-55483692D01*
X59948167Y-55507282D01*
X59962548Y-55534187D01*
X59971405Y-55563384D01*
X59975000Y-55599890D01*
X59975000Y-56150110D01*
X59971405Y-56186616D01*
X59962548Y-56215813D01*
X59948167Y-56242718D01*
X59928808Y-56266308D01*
X59905218Y-56285667D01*
X59878313Y-56300048D01*
X59849116Y-56308905D01*
X59812610Y-56312500D01*
X59187390Y-56312500D01*
X59150884Y-56308905D01*
X59121687Y-56300048D01*
X59094782Y-56285667D01*
X59071192Y-56266308D01*
X59051833Y-56242718D01*
X59037452Y-56215813D01*
X59028595Y-56186616D01*
X59025000Y-56150110D01*
X59025000Y-55599890D01*
X59028595Y-55563384D01*
X59037452Y-55534187D01*
X59051833Y-55507282D01*
X59071192Y-55483692D01*
X59094782Y-55464333D01*
X59121687Y-55449952D01*
X59150884Y-55441095D01*
X59187390Y-55437500D01*
X59812610Y-55437500D01*
X59849116Y-55441095D01*
X59849116Y-55441095D01*
G37*
G36*
X50051463Y-55277226D02*
X50067298Y-55282030D01*
X50081886Y-55289827D01*
X50094676Y-55300324D01*
X50105173Y-55313114D01*
X50112970Y-55327702D01*
X50117774Y-55343537D01*
X50120000Y-55366140D01*
X50120000Y-55773860D01*
X50117774Y-55796463D01*
X50112970Y-55812298D01*
X50105173Y-55826886D01*
X50094676Y-55839676D01*
X50081886Y-55850173D01*
X50067298Y-55857970D01*
X50051463Y-55862774D01*
X50028860Y-55865000D01*
X49571140Y-55865000D01*
X49548537Y-55862774D01*
X49532702Y-55857970D01*
X49518114Y-55850173D01*
X49505324Y-55839676D01*
X49494827Y-55826886D01*
X49487030Y-55812298D01*
X49482226Y-55796463D01*
X49480000Y-55773860D01*
X49480000Y-55366140D01*
X49482226Y-55343537D01*
X49487030Y-55327702D01*
X49494827Y-55313114D01*
X49505324Y-55300324D01*
X49518114Y-55289827D01*
X49532702Y-55282030D01*
X49548537Y-55277226D01*
X49571140Y-55275000D01*
X50028860Y-55275000D01*
X50051463Y-55277226D01*
X50051463Y-55277226D01*
G37*
G36*
X63153992Y-54841576D02*
X63187883Y-54851857D01*
X63219111Y-54868548D01*
X63246485Y-54891015D01*
X63268952Y-54918389D01*
X63285643Y-54949617D01*
X63295924Y-54983508D01*
X63300000Y-55024891D01*
X63300000Y-55625109D01*
X63295924Y-55666492D01*
X63285643Y-55700383D01*
X63268952Y-55731611D01*
X63246485Y-55758985D01*
X63219111Y-55781452D01*
X63187883Y-55798143D01*
X63153992Y-55808424D01*
X63112609Y-55812500D01*
X62087391Y-55812500D01*
X62046008Y-55808424D01*
X62012117Y-55798143D01*
X61980889Y-55781452D01*
X61953515Y-55758985D01*
X61931048Y-55731611D01*
X61914357Y-55700383D01*
X61904076Y-55666492D01*
X61900000Y-55625109D01*
X61900000Y-55024891D01*
X61904076Y-54983508D01*
X61914357Y-54949617D01*
X61931048Y-54918389D01*
X61953515Y-54891015D01*
X61980889Y-54868548D01*
X62012117Y-54851857D01*
X62046008Y-54841576D01*
X62087391Y-54837500D01*
X63112609Y-54837500D01*
X63153992Y-54841576D01*
X63153992Y-54841576D01*
G37*
G36*
X47995845Y-54469215D02*
X48086839Y-54506906D01*
X48130800Y-54536280D01*
X48168734Y-54561627D01*
X48238373Y-54631266D01*
X48238375Y-54631269D01*
X48291428Y-54710667D01*
X48293095Y-54713163D01*
X48303176Y-54737500D01*
X48330785Y-54804155D01*
X48350000Y-54900754D01*
X48350000Y-54999246D01*
X48330785Y-55095845D01*
X48293094Y-55186839D01*
X48279993Y-55206446D01*
X48238373Y-55268734D01*
X48168734Y-55338373D01*
X48168731Y-55338375D01*
X48086839Y-55393094D01*
X48086838Y-55393095D01*
X48086837Y-55393095D01*
X48016520Y-55422221D01*
X47995845Y-55430785D01*
X47899246Y-55450000D01*
X47800754Y-55450000D01*
X47704155Y-55430785D01*
X47683480Y-55422221D01*
X47613163Y-55393095D01*
X47613162Y-55393095D01*
X47613161Y-55393094D01*
X47531269Y-55338375D01*
X47531266Y-55338373D01*
X47461627Y-55268734D01*
X47420007Y-55206446D01*
X47406906Y-55186839D01*
X47369215Y-55095845D01*
X47350000Y-54999246D01*
X47350000Y-54900754D01*
X47369215Y-54804155D01*
X47396824Y-54737500D01*
X47406905Y-54713163D01*
X47408573Y-54710667D01*
X47461625Y-54631269D01*
X47461627Y-54631266D01*
X47531266Y-54561627D01*
X47569200Y-54536280D01*
X47613161Y-54506906D01*
X47704155Y-54469215D01*
X47800754Y-54450000D01*
X47899246Y-54450000D01*
X47995845Y-54469215D01*
X47995845Y-54469215D01*
G37*
G36*
X52400000Y-55400000D02*
X50600000Y-55400000D01*
X50600000Y-54400000D01*
X52400000Y-54400000D01*
X52400000Y-55400000D01*
X52400000Y-55400000D01*
G37*
G36*
X65585000Y-55245000D02*
X64285000Y-55245000D01*
X64285000Y-54695000D01*
X65585000Y-54695000D01*
X65585000Y-55245000D01*
X65585000Y-55245000D01*
G37*
G36*
X50051463Y-54307226D02*
X50067298Y-54312030D01*
X50081886Y-54319827D01*
X50094676Y-54330324D01*
X50105173Y-54343114D01*
X50112970Y-54357702D01*
X50117774Y-54373537D01*
X50120000Y-54396140D01*
X50120000Y-54803860D01*
X50117774Y-54826463D01*
X50112970Y-54842298D01*
X50105173Y-54856886D01*
X50094676Y-54869676D01*
X50081886Y-54880173D01*
X50067298Y-54887970D01*
X50051463Y-54892774D01*
X50028860Y-54895000D01*
X49571140Y-54895000D01*
X49548537Y-54892774D01*
X49532702Y-54887970D01*
X49518114Y-54880173D01*
X49505324Y-54869676D01*
X49494827Y-54856886D01*
X49487030Y-54842298D01*
X49482226Y-54826463D01*
X49480000Y-54803860D01*
X49480000Y-54396140D01*
X49482226Y-54373537D01*
X49487030Y-54357702D01*
X49494827Y-54343114D01*
X49505324Y-54330324D01*
X49518114Y-54319827D01*
X49532702Y-54312030D01*
X49548537Y-54307226D01*
X49571140Y-54305000D01*
X50028860Y-54305000D01*
X50051463Y-54307226D01*
X50051463Y-54307226D01*
G37*
G36*
X61149116Y-53866095D02*
X61178313Y-53874952D01*
X61205218Y-53889333D01*
X61228808Y-53908692D01*
X61248167Y-53932282D01*
X61262548Y-53959187D01*
X61271405Y-53988384D01*
X61275000Y-54024890D01*
X61275000Y-54575110D01*
X61271405Y-54611616D01*
X61262548Y-54640813D01*
X61248167Y-54667718D01*
X61228808Y-54691308D01*
X61205218Y-54710667D01*
X61178313Y-54725048D01*
X61149116Y-54733905D01*
X61112610Y-54737500D01*
X60487390Y-54737500D01*
X60450884Y-54733905D01*
X60421687Y-54725048D01*
X60394782Y-54710667D01*
X60371192Y-54691308D01*
X60351833Y-54667718D01*
X60337452Y-54640813D01*
X60328595Y-54611616D01*
X60325000Y-54575110D01*
X60325000Y-54024890D01*
X60328595Y-53988384D01*
X60337452Y-53959187D01*
X60351833Y-53932282D01*
X60371192Y-53908692D01*
X60394782Y-53889333D01*
X60421687Y-53874952D01*
X60450884Y-53866095D01*
X60487390Y-53862500D01*
X61112610Y-53862500D01*
X61149116Y-53866095D01*
X61149116Y-53866095D01*
G37*
G36*
X59849116Y-53866095D02*
X59878313Y-53874952D01*
X59905218Y-53889333D01*
X59928808Y-53908692D01*
X59948167Y-53932282D01*
X59962548Y-53959187D01*
X59971405Y-53988384D01*
X59975000Y-54024890D01*
X59975000Y-54575110D01*
X59971405Y-54611616D01*
X59962548Y-54640813D01*
X59948167Y-54667718D01*
X59928808Y-54691308D01*
X59905218Y-54710667D01*
X59878313Y-54725048D01*
X59849116Y-54733905D01*
X59812610Y-54737500D01*
X59187390Y-54737500D01*
X59150884Y-54733905D01*
X59121687Y-54725048D01*
X59094782Y-54710667D01*
X59071192Y-54691308D01*
X59051833Y-54667718D01*
X59037452Y-54640813D01*
X59028595Y-54611616D01*
X59025000Y-54575110D01*
X59025000Y-54024890D01*
X59028595Y-53988384D01*
X59037452Y-53959187D01*
X59051833Y-53932282D01*
X59071192Y-53908692D01*
X59094782Y-53889333D01*
X59121687Y-53874952D01*
X59150884Y-53866095D01*
X59187390Y-53862500D01*
X59812610Y-53862500D01*
X59849116Y-53866095D01*
X59849116Y-53866095D01*
G37*
G36*
X48175012Y-52823057D02*
X48284207Y-52868287D01*
X48382481Y-52933952D01*
X48466048Y-53017519D01*
X48531713Y-53115793D01*
X48576943Y-53224988D01*
X48600000Y-53340904D01*
X48600000Y-53459096D01*
X48576943Y-53575012D01*
X48531713Y-53684207D01*
X48466048Y-53782481D01*
X48382481Y-53866048D01*
X48284207Y-53931713D01*
X48175012Y-53976943D01*
X48059096Y-54000000D01*
X47940904Y-54000000D01*
X47824988Y-53976943D01*
X47715793Y-53931713D01*
X47617519Y-53866048D01*
X47533952Y-53782481D01*
X47468287Y-53684207D01*
X47423057Y-53575012D01*
X47400000Y-53459096D01*
X47400000Y-53340904D01*
X47423057Y-53224988D01*
X47468287Y-53115793D01*
X47533952Y-53017519D01*
X47617519Y-52933952D01*
X47715793Y-52868287D01*
X47824988Y-52823057D01*
X47940904Y-52800000D01*
X48059096Y-52800000D01*
X48175012Y-52823057D01*
X48175012Y-52823057D01*
G37*
G36*
X52251463Y-53377226D02*
X52267298Y-53382030D01*
X52281886Y-53389827D01*
X52294676Y-53400324D01*
X52305173Y-53413114D01*
X52312970Y-53427702D01*
X52317774Y-53443537D01*
X52320000Y-53466140D01*
X52320000Y-53873860D01*
X52317774Y-53896463D01*
X52312970Y-53912298D01*
X52305173Y-53926886D01*
X52294676Y-53939676D01*
X52281886Y-53950173D01*
X52267298Y-53957970D01*
X52251463Y-53962774D01*
X52228860Y-53965000D01*
X51771140Y-53965000D01*
X51748537Y-53962774D01*
X51732702Y-53957970D01*
X51718114Y-53950173D01*
X51705324Y-53939676D01*
X51694827Y-53926886D01*
X51687030Y-53912298D01*
X51682226Y-53896463D01*
X51680000Y-53873860D01*
X51680000Y-53466140D01*
X51682226Y-53443537D01*
X51687030Y-53427702D01*
X51694827Y-53413114D01*
X51705324Y-53400324D01*
X51718114Y-53389827D01*
X51732702Y-53382030D01*
X51748537Y-53377226D01*
X51771140Y-53375000D01*
X52228860Y-53375000D01*
X52251463Y-53377226D01*
X52251463Y-53377226D01*
G37*
G36*
X50256463Y-52382226D02*
X50272298Y-52387030D01*
X50286886Y-52394827D01*
X50299676Y-52405324D01*
X50310173Y-52418114D01*
X50317970Y-52432702D01*
X50322774Y-52448537D01*
X50325000Y-52471140D01*
X50325000Y-52928860D01*
X50322774Y-52951463D01*
X50317970Y-52967298D01*
X50310173Y-52981886D01*
X50299676Y-52994676D01*
X50286886Y-53005173D01*
X50272298Y-53012970D01*
X50256463Y-53017774D01*
X50233860Y-53020000D01*
X49826140Y-53020000D01*
X49803537Y-53017774D01*
X49787702Y-53012970D01*
X49773114Y-53005173D01*
X49760324Y-52994676D01*
X49749827Y-52981886D01*
X49742030Y-52967298D01*
X49737226Y-52951463D01*
X49735000Y-52928860D01*
X49735000Y-52471140D01*
X49737226Y-52448537D01*
X49742030Y-52432702D01*
X49749827Y-52418114D01*
X49760324Y-52405324D01*
X49773114Y-52394827D01*
X49787702Y-52387030D01*
X49803537Y-52382226D01*
X49826140Y-52380000D01*
X50233860Y-52380000D01*
X50256463Y-52382226D01*
X50256463Y-52382226D01*
G37*
G36*
X51226463Y-52382226D02*
X51242298Y-52387030D01*
X51256886Y-52394827D01*
X51269676Y-52405324D01*
X51280173Y-52418114D01*
X51287970Y-52432702D01*
X51292774Y-52448537D01*
X51295000Y-52471140D01*
X51295000Y-52928860D01*
X51292774Y-52951463D01*
X51287970Y-52967298D01*
X51280173Y-52981886D01*
X51269676Y-52994676D01*
X51256886Y-53005173D01*
X51242298Y-53012970D01*
X51226463Y-53017774D01*
X51203860Y-53020000D01*
X50796140Y-53020000D01*
X50773537Y-53017774D01*
X50757702Y-53012970D01*
X50743114Y-53005173D01*
X50730324Y-52994676D01*
X50719827Y-52981886D01*
X50712030Y-52967298D01*
X50707226Y-52951463D01*
X50705000Y-52928860D01*
X50705000Y-52471140D01*
X50707226Y-52448537D01*
X50712030Y-52432702D01*
X50719827Y-52418114D01*
X50730324Y-52405324D01*
X50743114Y-52394827D01*
X50757702Y-52387030D01*
X50773537Y-52382226D01*
X50796140Y-52380000D01*
X51203860Y-52380000D01*
X51226463Y-52382226D01*
X51226463Y-52382226D01*
G37*
G36*
X52251463Y-52407226D02*
X52267298Y-52412030D01*
X52281886Y-52419827D01*
X52294676Y-52430324D01*
X52305173Y-52443114D01*
X52312970Y-52457702D01*
X52317774Y-52473537D01*
X52320000Y-52496140D01*
X52320000Y-52903860D01*
X52317774Y-52926463D01*
X52312970Y-52942298D01*
X52305173Y-52956886D01*
X52294676Y-52969676D01*
X52281886Y-52980173D01*
X52267298Y-52987970D01*
X52251463Y-52992774D01*
X52228860Y-52995000D01*
X51771140Y-52995000D01*
X51748537Y-52992774D01*
X51732702Y-52987970D01*
X51718114Y-52980173D01*
X51705324Y-52969676D01*
X51694827Y-52956886D01*
X51687030Y-52942298D01*
X51682226Y-52926463D01*
X51680000Y-52903860D01*
X51680000Y-52496140D01*
X51682226Y-52473537D01*
X51687030Y-52457702D01*
X51694827Y-52443114D01*
X51705324Y-52430324D01*
X51718114Y-52419827D01*
X51732702Y-52412030D01*
X51748537Y-52407226D01*
X51771140Y-52405000D01*
X52228860Y-52405000D01*
X52251463Y-52407226D01*
X52251463Y-52407226D01*
G37*
G36*
X61351463Y-52282226D02*
X61367298Y-52287030D01*
X61381886Y-52294827D01*
X61394676Y-52305324D01*
X61405173Y-52318114D01*
X61412970Y-52332702D01*
X61417774Y-52348537D01*
X61420000Y-52371140D01*
X61420000Y-52778860D01*
X61417774Y-52801463D01*
X61412970Y-52817298D01*
X61405173Y-52831886D01*
X61394676Y-52844676D01*
X61381886Y-52855173D01*
X61367298Y-52862970D01*
X61351463Y-52867774D01*
X61328860Y-52870000D01*
X60871140Y-52870000D01*
X60848537Y-52867774D01*
X60832702Y-52862970D01*
X60818114Y-52855173D01*
X60805324Y-52844676D01*
X60794827Y-52831886D01*
X60787030Y-52817298D01*
X60782226Y-52801463D01*
X60780000Y-52778860D01*
X60780000Y-52371140D01*
X60782226Y-52348537D01*
X60787030Y-52332702D01*
X60794827Y-52318114D01*
X60805324Y-52305324D01*
X60818114Y-52294827D01*
X60832702Y-52287030D01*
X60848537Y-52282226D01*
X60871140Y-52280000D01*
X61328860Y-52280000D01*
X61351463Y-52282226D01*
X61351463Y-52282226D01*
G37*
G36*
X68404183Y-51326900D02*
X68531574Y-51379668D01*
X68645145Y-51455553D01*
X68646225Y-51456275D01*
X68743725Y-51553775D01*
X68820332Y-51668426D01*
X68873100Y-51795817D01*
X68900000Y-51931055D01*
X68900000Y-52068945D01*
X68873100Y-52204183D01*
X68840521Y-52282834D01*
X68820332Y-52331574D01*
X68743726Y-52446224D01*
X68646224Y-52543726D01*
X68569486Y-52595000D01*
X68531574Y-52620332D01*
X68404183Y-52673100D01*
X68268945Y-52700000D01*
X68131055Y-52700000D01*
X67995817Y-52673100D01*
X67868426Y-52620332D01*
X67830514Y-52595000D01*
X67753776Y-52543726D01*
X67656274Y-52446224D01*
X67579668Y-52331574D01*
X67559479Y-52282834D01*
X67526900Y-52204183D01*
X67500000Y-52068945D01*
X67500000Y-51931055D01*
X67526900Y-51795817D01*
X67579668Y-51668426D01*
X67656275Y-51553775D01*
X67753775Y-51456275D01*
X67754856Y-51455553D01*
X67868426Y-51379668D01*
X67995817Y-51326900D01*
X68131055Y-51300000D01*
X68268945Y-51300000D01*
X68404183Y-51326900D01*
X68404183Y-51326900D01*
G37*
G36*
X65585000Y-52595000D02*
X64285000Y-52595000D01*
X64285000Y-52045000D01*
X65585000Y-52045000D01*
X65585000Y-52595000D01*
X65585000Y-52595000D01*
G37*
G36*
X60246463Y-51832226D02*
X60262298Y-51837030D01*
X60276886Y-51844827D01*
X60289676Y-51855324D01*
X60300173Y-51868114D01*
X60307970Y-51882702D01*
X60312774Y-51898537D01*
X60315000Y-51921140D01*
X60315000Y-52378860D01*
X60312774Y-52401463D01*
X60307970Y-52417298D01*
X60300173Y-52431886D01*
X60289676Y-52444676D01*
X60276886Y-52455173D01*
X60262298Y-52462970D01*
X60246463Y-52467774D01*
X60223860Y-52470000D01*
X59816140Y-52470000D01*
X59793537Y-52467774D01*
X59777702Y-52462970D01*
X59763114Y-52455173D01*
X59750324Y-52444676D01*
X59739827Y-52431886D01*
X59732030Y-52417298D01*
X59727226Y-52401463D01*
X59725000Y-52378860D01*
X59725000Y-51921140D01*
X59727226Y-51898537D01*
X59732030Y-51882702D01*
X59739827Y-51868114D01*
X59750324Y-51855324D01*
X59763114Y-51844827D01*
X59777702Y-51837030D01*
X59793537Y-51832226D01*
X59816140Y-51830000D01*
X60223860Y-51830000D01*
X60246463Y-51832226D01*
X60246463Y-51832226D01*
G37*
G36*
X59276463Y-51832226D02*
X59292298Y-51837030D01*
X59306886Y-51844827D01*
X59319676Y-51855324D01*
X59330173Y-51868114D01*
X59337970Y-51882702D01*
X59342774Y-51898537D01*
X59345000Y-51921140D01*
X59345000Y-52378860D01*
X59342774Y-52401463D01*
X59337970Y-52417298D01*
X59330173Y-52431886D01*
X59319676Y-52444676D01*
X59306886Y-52455173D01*
X59292298Y-52462970D01*
X59276463Y-52467774D01*
X59253860Y-52470000D01*
X58846140Y-52470000D01*
X58823537Y-52467774D01*
X58807702Y-52462970D01*
X58793114Y-52455173D01*
X58780324Y-52444676D01*
X58769827Y-52431886D01*
X58762030Y-52417298D01*
X58757226Y-52401463D01*
X58755000Y-52378860D01*
X58755000Y-51921140D01*
X58757226Y-51898537D01*
X58762030Y-51882702D01*
X58769827Y-51868114D01*
X58780324Y-51855324D01*
X58793114Y-51844827D01*
X58807702Y-51837030D01*
X58823537Y-51832226D01*
X58846140Y-51830000D01*
X59253860Y-51830000D01*
X59276463Y-51832226D01*
X59276463Y-51832226D01*
G37*
G36*
X51251463Y-51392226D02*
X51267298Y-51397030D01*
X51281886Y-51404827D01*
X51294676Y-51415324D01*
X51305173Y-51428114D01*
X51312970Y-51442702D01*
X51317774Y-51458537D01*
X51320000Y-51481140D01*
X51320000Y-51888860D01*
X51317774Y-51911463D01*
X51312970Y-51927298D01*
X51305173Y-51941886D01*
X51294676Y-51954676D01*
X51281886Y-51965173D01*
X51267298Y-51972970D01*
X51251463Y-51977774D01*
X51228860Y-51980000D01*
X50771140Y-51980000D01*
X50748537Y-51977774D01*
X50732702Y-51972970D01*
X50718114Y-51965173D01*
X50705324Y-51954676D01*
X50694827Y-51941886D01*
X50687030Y-51927298D01*
X50682226Y-51911463D01*
X50680000Y-51888860D01*
X50680000Y-51481140D01*
X50682226Y-51458537D01*
X50687030Y-51442702D01*
X50694827Y-51428114D01*
X50705324Y-51415324D01*
X50718114Y-51404827D01*
X50732702Y-51397030D01*
X50748537Y-51392226D01*
X50771140Y-51390000D01*
X51228860Y-51390000D01*
X51251463Y-51392226D01*
X51251463Y-51392226D01*
G37*
G36*
X61351463Y-51312226D02*
X61367298Y-51317030D01*
X61381886Y-51324827D01*
X61394676Y-51335324D01*
X61405173Y-51348114D01*
X61412970Y-51362702D01*
X61417774Y-51378537D01*
X61420000Y-51401140D01*
X61420000Y-51808860D01*
X61417774Y-51831463D01*
X61412970Y-51847298D01*
X61405173Y-51861886D01*
X61394676Y-51874676D01*
X61381886Y-51885173D01*
X61367298Y-51892970D01*
X61351463Y-51897774D01*
X61328860Y-51900000D01*
X60871140Y-51900000D01*
X60848537Y-51897774D01*
X60832702Y-51892970D01*
X60818114Y-51885173D01*
X60805324Y-51874676D01*
X60794827Y-51861886D01*
X60787030Y-51847298D01*
X60782226Y-51831463D01*
X60780000Y-51808860D01*
X60780000Y-51401140D01*
X60782226Y-51378537D01*
X60787030Y-51362702D01*
X60794827Y-51348114D01*
X60805324Y-51335324D01*
X60818114Y-51324827D01*
X60832702Y-51317030D01*
X60848537Y-51312226D01*
X60871140Y-51310000D01*
X61328860Y-51310000D01*
X61351463Y-51312226D01*
X61351463Y-51312226D01*
G37*
G36*
X59351463Y-50852406D02*
X59367298Y-50857210D01*
X59381886Y-50865007D01*
X59394676Y-50875504D01*
X59405173Y-50888294D01*
X59412970Y-50902882D01*
X59417774Y-50918717D01*
X59420000Y-50941320D01*
X59420000Y-51349040D01*
X59417774Y-51371643D01*
X59412970Y-51387478D01*
X59405173Y-51402066D01*
X59394676Y-51414856D01*
X59381886Y-51425353D01*
X59367298Y-51433150D01*
X59351463Y-51437954D01*
X59328860Y-51440180D01*
X58871140Y-51440180D01*
X58848537Y-51437954D01*
X58832702Y-51433150D01*
X58818114Y-51425353D01*
X58805324Y-51414856D01*
X58794827Y-51402066D01*
X58787030Y-51387478D01*
X58782226Y-51371643D01*
X58780000Y-51349040D01*
X58780000Y-50941320D01*
X58782226Y-50918717D01*
X58787030Y-50902882D01*
X58794827Y-50888294D01*
X58805324Y-50875504D01*
X58818114Y-50865007D01*
X58832702Y-50857210D01*
X58848537Y-50852406D01*
X58871140Y-50850180D01*
X59328860Y-50850180D01*
X59351463Y-50852406D01*
X59351463Y-50852406D01*
G37*
G36*
X53926463Y-50782226D02*
X53942298Y-50787030D01*
X53956886Y-50794827D01*
X53969676Y-50805324D01*
X53980173Y-50818114D01*
X53987970Y-50832702D01*
X53992774Y-50848537D01*
X53995000Y-50871140D01*
X53995000Y-51328860D01*
X53992774Y-51351463D01*
X53987970Y-51367298D01*
X53980173Y-51381886D01*
X53969676Y-51394676D01*
X53956886Y-51405173D01*
X53942298Y-51412970D01*
X53926463Y-51417774D01*
X53903860Y-51420000D01*
X53496140Y-51420000D01*
X53473537Y-51417774D01*
X53457702Y-51412970D01*
X53443114Y-51405173D01*
X53430324Y-51394676D01*
X53419827Y-51381886D01*
X53412030Y-51367298D01*
X53407226Y-51351463D01*
X53405000Y-51328860D01*
X53405000Y-50871140D01*
X53407226Y-50848537D01*
X53412030Y-50832702D01*
X53419827Y-50818114D01*
X53430324Y-50805324D01*
X53443114Y-50794827D01*
X53457702Y-50787030D01*
X53473537Y-50782226D01*
X53496140Y-50780000D01*
X53903860Y-50780000D01*
X53926463Y-50782226D01*
X53926463Y-50782226D01*
G37*
G36*
X52956463Y-50782226D02*
X52972298Y-50787030D01*
X52986886Y-50794827D01*
X52999676Y-50805324D01*
X53010173Y-50818114D01*
X53017970Y-50832702D01*
X53022774Y-50848537D01*
X53025000Y-50871140D01*
X53025000Y-51328860D01*
X53022774Y-51351463D01*
X53017970Y-51367298D01*
X53010173Y-51381886D01*
X52999676Y-51394676D01*
X52986886Y-51405173D01*
X52972298Y-51412970D01*
X52956463Y-51417774D01*
X52933860Y-51420000D01*
X52526140Y-51420000D01*
X52503537Y-51417774D01*
X52487702Y-51412970D01*
X52473114Y-51405173D01*
X52460324Y-51394676D01*
X52449827Y-51381886D01*
X52442030Y-51367298D01*
X52437226Y-51351463D01*
X52435000Y-51328860D01*
X52435000Y-50871140D01*
X52437226Y-50848537D01*
X52442030Y-50832702D01*
X52449827Y-50818114D01*
X52460324Y-50805324D01*
X52473114Y-50794827D01*
X52487702Y-50787030D01*
X52503537Y-50782226D01*
X52526140Y-50780000D01*
X52933860Y-50780000D01*
X52956463Y-50782226D01*
X52956463Y-50782226D01*
G37*
G36*
X51251463Y-50422226D02*
X51267298Y-50427030D01*
X51281886Y-50434827D01*
X51294676Y-50445324D01*
X51305173Y-50458114D01*
X51312970Y-50472702D01*
X51317774Y-50488537D01*
X51320000Y-50511140D01*
X51320000Y-50918860D01*
X51317774Y-50941463D01*
X51312970Y-50957298D01*
X51305173Y-50971886D01*
X51294676Y-50984676D01*
X51281886Y-50995173D01*
X51267298Y-51002970D01*
X51251463Y-51007774D01*
X51228860Y-51010000D01*
X50771140Y-51010000D01*
X50748537Y-51007774D01*
X50732702Y-51002970D01*
X50718114Y-50995173D01*
X50705324Y-50984676D01*
X50694827Y-50971886D01*
X50687030Y-50957298D01*
X50682226Y-50941463D01*
X50680000Y-50918860D01*
X50680000Y-50511140D01*
X50682226Y-50488537D01*
X50687030Y-50472702D01*
X50694827Y-50458114D01*
X50705324Y-50445324D01*
X50718114Y-50434827D01*
X50732702Y-50427030D01*
X50748537Y-50422226D01*
X50771140Y-50420000D01*
X51228860Y-50420000D01*
X51251463Y-50422226D01*
X51251463Y-50422226D01*
G37*
G36*
X68337224Y-49410128D02*
X68469175Y-49450155D01*
X68590781Y-49515155D01*
X68697370Y-49602630D01*
X68784845Y-49709219D01*
X68849845Y-49830825D01*
X68889872Y-49962776D01*
X68903387Y-50100000D01*
X68889872Y-50237224D01*
X68849845Y-50369175D01*
X68784845Y-50490781D01*
X68697370Y-50597370D01*
X68590781Y-50684845D01*
X68469175Y-50749845D01*
X68337224Y-50789872D01*
X68234390Y-50800000D01*
X68165610Y-50800000D01*
X68062776Y-50789872D01*
X67930825Y-50749845D01*
X67809219Y-50684845D01*
X67702630Y-50597370D01*
X67615155Y-50490781D01*
X67550155Y-50369175D01*
X67510128Y-50237224D01*
X67496613Y-50100000D01*
X67510128Y-49962776D01*
X67550155Y-49830825D01*
X67615155Y-49709219D01*
X67702630Y-49602630D01*
X67809219Y-49515155D01*
X67930825Y-49450155D01*
X68062776Y-49410128D01*
X68165610Y-49400000D01*
X68234390Y-49400000D01*
X68337224Y-49410128D01*
X68337224Y-49410128D01*
G37*
G36*
X57900000Y-50575000D02*
X56500000Y-50575000D01*
X56500000Y-49425000D01*
X57900000Y-49425000D01*
X57900000Y-50575000D01*
X57900000Y-50575000D01*
G37*
G36*
X55700000Y-50575000D02*
X54300000Y-50575000D01*
X54300000Y-49425000D01*
X55700000Y-49425000D01*
X55700000Y-50575000D01*
X55700000Y-50575000D01*
G37*
G36*
X59351463Y-49882406D02*
X59367298Y-49887210D01*
X59381886Y-49895007D01*
X59394676Y-49905504D01*
X59405173Y-49918294D01*
X59412970Y-49932882D01*
X59417774Y-49948717D01*
X59420000Y-49971320D01*
X59420000Y-50379040D01*
X59417774Y-50401643D01*
X59412970Y-50417478D01*
X59405173Y-50432066D01*
X59394676Y-50444856D01*
X59381886Y-50455353D01*
X59367298Y-50463150D01*
X59351463Y-50467954D01*
X59328860Y-50470180D01*
X58871140Y-50470180D01*
X58848537Y-50467954D01*
X58832702Y-50463150D01*
X58818114Y-50455353D01*
X58805324Y-50444856D01*
X58794827Y-50432066D01*
X58787030Y-50417478D01*
X58782226Y-50401643D01*
X58780000Y-50379040D01*
X58780000Y-49971320D01*
X58782226Y-49948717D01*
X58787030Y-49932882D01*
X58794827Y-49918294D01*
X58805324Y-49905504D01*
X58818114Y-49895007D01*
X58832702Y-49887210D01*
X58848537Y-49882406D01*
X58871140Y-49880180D01*
X59328860Y-49880180D01*
X59351463Y-49882406D01*
X59351463Y-49882406D01*
G37*
G36*
X53851463Y-49507226D02*
X53867298Y-49512030D01*
X53881886Y-49519827D01*
X53894676Y-49530324D01*
X53905173Y-49543114D01*
X53912970Y-49557702D01*
X53917774Y-49573537D01*
X53920000Y-49596140D01*
X53920000Y-50003860D01*
X53917774Y-50026463D01*
X53912970Y-50042298D01*
X53905173Y-50056886D01*
X53894676Y-50069676D01*
X53881886Y-50080173D01*
X53867298Y-50087970D01*
X53851463Y-50092774D01*
X53828860Y-50095000D01*
X53371140Y-50095000D01*
X53348537Y-50092774D01*
X53332702Y-50087970D01*
X53318114Y-50080173D01*
X53305324Y-50069676D01*
X53294827Y-50056886D01*
X53287030Y-50042298D01*
X53282226Y-50026463D01*
X53280000Y-50003860D01*
X53280000Y-49596140D01*
X53282226Y-49573537D01*
X53287030Y-49557702D01*
X53294827Y-49543114D01*
X53305324Y-49530324D01*
X53318114Y-49519827D01*
X53332702Y-49512030D01*
X53348537Y-49507226D01*
X53371140Y-49505000D01*
X53828860Y-49505000D01*
X53851463Y-49507226D01*
X53851463Y-49507226D01*
G37*
G36*
X51226463Y-49382226D02*
X51242298Y-49387030D01*
X51256886Y-49394827D01*
X51269676Y-49405324D01*
X51280173Y-49418114D01*
X51287970Y-49432702D01*
X51292774Y-49448537D01*
X51295000Y-49471140D01*
X51295000Y-49928860D01*
X51292774Y-49951463D01*
X51287970Y-49967298D01*
X51280173Y-49981886D01*
X51269676Y-49994676D01*
X51256886Y-50005173D01*
X51242298Y-50012970D01*
X51226463Y-50017774D01*
X51203860Y-50020000D01*
X50796140Y-50020000D01*
X50773537Y-50017774D01*
X50757702Y-50012970D01*
X50743114Y-50005173D01*
X50730324Y-49994676D01*
X50719827Y-49981886D01*
X50712030Y-49967298D01*
X50707226Y-49951463D01*
X50705000Y-49928860D01*
X50705000Y-49471140D01*
X50707226Y-49448537D01*
X50712030Y-49432702D01*
X50719827Y-49418114D01*
X50730324Y-49405324D01*
X50743114Y-49394827D01*
X50757702Y-49387030D01*
X50773537Y-49382226D01*
X50796140Y-49380000D01*
X51203860Y-49380000D01*
X51226463Y-49382226D01*
X51226463Y-49382226D01*
G37*
G36*
X50256463Y-49382226D02*
X50272298Y-49387030D01*
X50286886Y-49394827D01*
X50299676Y-49405324D01*
X50310173Y-49418114D01*
X50317970Y-49432702D01*
X50322774Y-49448537D01*
X50325000Y-49471140D01*
X50325000Y-49928860D01*
X50322774Y-49951463D01*
X50317970Y-49967298D01*
X50310173Y-49981886D01*
X50299676Y-49994676D01*
X50286886Y-50005173D01*
X50272298Y-50012970D01*
X50256463Y-50017774D01*
X50233860Y-50020000D01*
X49826140Y-50020000D01*
X49803537Y-50017774D01*
X49787702Y-50012970D01*
X49773114Y-50005173D01*
X49760324Y-49994676D01*
X49749827Y-49981886D01*
X49742030Y-49967298D01*
X49737226Y-49951463D01*
X49735000Y-49928860D01*
X49735000Y-49471140D01*
X49737226Y-49448537D01*
X49742030Y-49432702D01*
X49749827Y-49418114D01*
X49760324Y-49405324D01*
X49773114Y-49394827D01*
X49787702Y-49387030D01*
X49803537Y-49382226D01*
X49826140Y-49380000D01*
X50233860Y-49380000D01*
X50256463Y-49382226D01*
X50256463Y-49382226D01*
G37*
G36*
X58951463Y-48807226D02*
X58967298Y-48812030D01*
X58981886Y-48819827D01*
X58994676Y-48830324D01*
X59005173Y-48843114D01*
X59012970Y-48857702D01*
X59017774Y-48873537D01*
X59020000Y-48896140D01*
X59020000Y-49303860D01*
X59017774Y-49326463D01*
X59012970Y-49342298D01*
X59005173Y-49356886D01*
X58994676Y-49369676D01*
X58981886Y-49380173D01*
X58967298Y-49387970D01*
X58951463Y-49392774D01*
X58928860Y-49395000D01*
X58471140Y-49395000D01*
X58448537Y-49392774D01*
X58432702Y-49387970D01*
X58418114Y-49380173D01*
X58405324Y-49369676D01*
X58394827Y-49356886D01*
X58387030Y-49342298D01*
X58382226Y-49326463D01*
X58380000Y-49303860D01*
X58380000Y-48896140D01*
X58382226Y-48873537D01*
X58387030Y-48857702D01*
X58394827Y-48843114D01*
X58405324Y-48830324D01*
X58418114Y-48819827D01*
X58432702Y-48812030D01*
X58448537Y-48807226D01*
X58471140Y-48805000D01*
X58928860Y-48805000D01*
X58951463Y-48807226D01*
X58951463Y-48807226D01*
G37*
G36*
X53851463Y-48537226D02*
X53867298Y-48542030D01*
X53881886Y-48549827D01*
X53894676Y-48560324D01*
X53905173Y-48573114D01*
X53912970Y-48587702D01*
X53917774Y-48603537D01*
X53920000Y-48626140D01*
X53920000Y-49033860D01*
X53917774Y-49056463D01*
X53912970Y-49072298D01*
X53905173Y-49086886D01*
X53894676Y-49099676D01*
X53881886Y-49110173D01*
X53867298Y-49117970D01*
X53851463Y-49122774D01*
X53828860Y-49125000D01*
X53371140Y-49125000D01*
X53348537Y-49122774D01*
X53332702Y-49117970D01*
X53318114Y-49110173D01*
X53305324Y-49099676D01*
X53294827Y-49086886D01*
X53287030Y-49072298D01*
X53282226Y-49056463D01*
X53280000Y-49033860D01*
X53280000Y-48626140D01*
X53282226Y-48603537D01*
X53287030Y-48587702D01*
X53294827Y-48573114D01*
X53305324Y-48560324D01*
X53318114Y-48549827D01*
X53332702Y-48542030D01*
X53348537Y-48537226D01*
X53371140Y-48535000D01*
X53828860Y-48535000D01*
X53851463Y-48537226D01*
X53851463Y-48537226D01*
G37*
G36*
X51251463Y-48407226D02*
X51267298Y-48412030D01*
X51281886Y-48419827D01*
X51294676Y-48430324D01*
X51305173Y-48443114D01*
X51312970Y-48457702D01*
X51317774Y-48473537D01*
X51320000Y-48496140D01*
X51320000Y-48903860D01*
X51317774Y-48926463D01*
X51312970Y-48942298D01*
X51305173Y-48956886D01*
X51294676Y-48969676D01*
X51281886Y-48980173D01*
X51267298Y-48987970D01*
X51251463Y-48992774D01*
X51228860Y-48995000D01*
X50771140Y-48995000D01*
X50748537Y-48992774D01*
X50732702Y-48987970D01*
X50718114Y-48980173D01*
X50705324Y-48969676D01*
X50694827Y-48956886D01*
X50687030Y-48942298D01*
X50682226Y-48926463D01*
X50680000Y-48903860D01*
X50680000Y-48496140D01*
X50682226Y-48473537D01*
X50687030Y-48457702D01*
X50694827Y-48443114D01*
X50705324Y-48430324D01*
X50718114Y-48419827D01*
X50732702Y-48412030D01*
X50748537Y-48407226D01*
X50771140Y-48405000D01*
X51228860Y-48405000D01*
X51251463Y-48407226D01*
X51251463Y-48407226D01*
G37*
G36*
X55700000Y-48975000D02*
X54300000Y-48975000D01*
X54300000Y-47825000D01*
X55700000Y-47825000D01*
X55700000Y-48975000D01*
X55700000Y-48975000D01*
G37*
G36*
X57900000Y-48975000D02*
X56500000Y-48975000D01*
X56500000Y-47825000D01*
X57900000Y-47825000D01*
X57900000Y-48975000D01*
X57900000Y-48975000D01*
G37*
G36*
X58951463Y-47837226D02*
X58967298Y-47842030D01*
X58981886Y-47849827D01*
X58994676Y-47860324D01*
X59005173Y-47873114D01*
X59012970Y-47887702D01*
X59017774Y-47903537D01*
X59020000Y-47926140D01*
X59020000Y-48333860D01*
X59017774Y-48356463D01*
X59012970Y-48372298D01*
X59005173Y-48386886D01*
X58994676Y-48399676D01*
X58981886Y-48410173D01*
X58967298Y-48417970D01*
X58951463Y-48422774D01*
X58928860Y-48425000D01*
X58471140Y-48425000D01*
X58448537Y-48422774D01*
X58432702Y-48417970D01*
X58418114Y-48410173D01*
X58405324Y-48399676D01*
X58394827Y-48386886D01*
X58387030Y-48372298D01*
X58382226Y-48356463D01*
X58380000Y-48333860D01*
X58380000Y-47926140D01*
X58382226Y-47903537D01*
X58387030Y-47887702D01*
X58394827Y-47873114D01*
X58405324Y-47860324D01*
X58418114Y-47849827D01*
X58432702Y-47842030D01*
X58448537Y-47837226D01*
X58471140Y-47835000D01*
X58928860Y-47835000D01*
X58951463Y-47837226D01*
X58951463Y-47837226D01*
G37*
G36*
X51254000Y-47367821D02*
X51256402Y-47392207D01*
X51263515Y-47415656D01*
X51275066Y-47437267D01*
X51287138Y-47450588D01*
X51286868Y-47450810D01*
X51305173Y-47473114D01*
X51312970Y-47487702D01*
X51317774Y-47503537D01*
X51320000Y-47526140D01*
X51320000Y-47933860D01*
X51317774Y-47956463D01*
X51312970Y-47972298D01*
X51305173Y-47986886D01*
X51294676Y-47999676D01*
X51281886Y-48010173D01*
X51267298Y-48017970D01*
X51251463Y-48022774D01*
X51228860Y-48025000D01*
X50771140Y-48025000D01*
X50748537Y-48022774D01*
X50732702Y-48017970D01*
X50718114Y-48010173D01*
X50705324Y-47999676D01*
X50694827Y-47986886D01*
X50687030Y-47972298D01*
X50682226Y-47956463D01*
X50680000Y-47933860D01*
X50680000Y-47526140D01*
X50682226Y-47503537D01*
X50687030Y-47487702D01*
X50694827Y-47473114D01*
X50709447Y-47455300D01*
X50717632Y-47447114D01*
X50731244Y-47426738D01*
X50740620Y-47404098D01*
X50746000Y-47367821D01*
X50746000Y-46746000D01*
X51254000Y-46746000D01*
X51254000Y-47367821D01*
X51254000Y-47367821D01*
G37*
G36*
X57680200Y-45984000D02*
X57172200Y-45984000D01*
X57172200Y-45476000D01*
X57680200Y-45476000D01*
X57680200Y-45984000D01*
X57680200Y-45984000D01*
G37*
M02*
