G04 #@! TF.GenerationSoftware,KiCad,Pcbnew,(5.0.2)-1*
G04 #@! TF.CreationDate,2019-04-15T20:42:24-05:00*
G04 #@! TF.ProjectId,testDesign2,74657374-4465-4736-9967-6e322e6b6963,rev?*
G04 #@! TF.SameCoordinates,Original*
G04 #@! TF.FileFunction,Copper,L2,Bot*
G04 #@! TF.FilePolarity,Positive*
%FSLAX46Y46*%
G04 Gerber Fmt 4.6, Leading zero omitted, Abs format (unit mm)*
G04 Created by KiCad (PCBNEW (5.0.2)-1) date 4/15/2019 8:42:24 PM*
%MOMM*%
%LPD*%
G01*
G04 APERTURE LIST*
G04 #@! TA.AperFunction,ComponentPad*
%ADD10R,0.508000X0.508000*%
G04 #@! TD*
G04 #@! TA.AperFunction,SMDPad,CuDef*
%ADD11C,2.080000*%
G04 #@! TD*
G04 #@! TA.AperFunction,Conductor*
%ADD12C,0.100000*%
G04 #@! TD*
G04 #@! TA.AperFunction,SMDPad,CuDef*
%ADD13R,1.350000X4.000000*%
G04 #@! TD*
G04 #@! TA.AperFunction,ViaPad*
%ADD14C,0.500000*%
G04 #@! TD*
G04 #@! TA.AperFunction,Conductor*
%ADD15C,2.900000*%
G04 #@! TD*
G04 #@! TA.AperFunction,ComponentPad*
%ADD16C,1.400000*%
G04 #@! TD*
G04 #@! TA.AperFunction,ComponentPad*
%ADD17O,1.400000X1.400000*%
G04 #@! TD*
G04 #@! TA.AperFunction,ViaPad*
%ADD18C,0.508000*%
G04 #@! TD*
G04 #@! TA.AperFunction,ViaPad*
%ADD19C,0.381000*%
G04 #@! TD*
G04 #@! TA.AperFunction,Conductor*
%ADD20C,0.508000*%
G04 #@! TD*
G04 #@! TA.AperFunction,Conductor*
%ADD21C,0.250000*%
G04 #@! TD*
G04 #@! TA.AperFunction,Conductor*
%ADD22C,0.200000*%
G04 #@! TD*
G04 #@! TA.AperFunction,Conductor*
%ADD23C,0.152400*%
G04 #@! TD*
G04 #@! TA.AperFunction,Conductor*
%ADD24C,0.254000*%
G04 #@! TD*
%ADD25C,0.254000*%
G04 APERTURE END LIST*
D10*
G04 #@! TO.P,AE1,2*
G04 #@! TO.N,N/C*
X57426200Y-45730000D03*
G04 #@! TD*
D11*
G04 #@! TO.P,BT1,2*
G04 #@! TO.N,GND*
X58140000Y-54240000D03*
D12*
G04 #@! TD*
G04 #@! TO.N,GND*
G04 #@! TO.C,BT1*
G36*
X57000000Y-53200000D02*
X55720000Y-53200000D01*
X55720000Y-51320000D01*
X58000000Y-51320000D01*
X58000000Y-53200000D01*
X59280000Y-53200000D01*
X59280000Y-55280000D01*
X57000000Y-55280000D01*
X57000000Y-53200000D01*
X57000000Y-53200000D01*
G37*
D13*
G04 #@! TO.P,BT1,1*
G04 #@! TO.N,VDDS*
X66455000Y-53300000D03*
G04 #@! TD*
D14*
G04 #@! TO.N,GND*
G04 #@! TO.C,U1*
X54800000Y-52900000D03*
X56000000Y-52900000D03*
X57200000Y-52900000D03*
X54800000Y-54100000D03*
X56000000Y-54100000D03*
X57200000Y-54100000D03*
X54800000Y-55300000D03*
X56000000Y-55300000D03*
X57200000Y-55300000D03*
D12*
G36*
X57225046Y-52651201D02*
X57249256Y-52654792D01*
X57272998Y-52660739D01*
X57296042Y-52668984D01*
X57318167Y-52679449D01*
X57339160Y-52692031D01*
X57358818Y-52706611D01*
X57376953Y-52723047D01*
X57393389Y-52741182D01*
X57407969Y-52760840D01*
X57420551Y-52781833D01*
X57431016Y-52803958D01*
X57439261Y-52827002D01*
X57445208Y-52850744D01*
X57448799Y-52874954D01*
X57450000Y-52899399D01*
X57450000Y-55300601D01*
X57448799Y-55325046D01*
X57445208Y-55349256D01*
X57439261Y-55372998D01*
X57431016Y-55396042D01*
X57420551Y-55418167D01*
X57407969Y-55439160D01*
X57393389Y-55458818D01*
X57376953Y-55476953D01*
X57358818Y-55493389D01*
X57339160Y-55507969D01*
X57318167Y-55520551D01*
X57296042Y-55531016D01*
X57272998Y-55539261D01*
X57249256Y-55545208D01*
X57225046Y-55548799D01*
X57200601Y-55550000D01*
X54799399Y-55550000D01*
X54774954Y-55548799D01*
X54750744Y-55545208D01*
X54727002Y-55539261D01*
X54703958Y-55531016D01*
X54681833Y-55520551D01*
X54660840Y-55507969D01*
X54641182Y-55493389D01*
X54623047Y-55476953D01*
X54606611Y-55458818D01*
X54592031Y-55439160D01*
X54579449Y-55418167D01*
X54568984Y-55396042D01*
X54560739Y-55372998D01*
X54554792Y-55349256D01*
X54551201Y-55325046D01*
X54550000Y-55300601D01*
X54550000Y-52899399D01*
X54551201Y-52874954D01*
X54554792Y-52850744D01*
X54560739Y-52827002D01*
X54568984Y-52803958D01*
X54579449Y-52781833D01*
X54592031Y-52760840D01*
X54606611Y-52741182D01*
X54623047Y-52723047D01*
X54641182Y-52706611D01*
X54660840Y-52692031D01*
X54681833Y-52679449D01*
X54703958Y-52668984D01*
X54727002Y-52660739D01*
X54750744Y-52654792D01*
X54774954Y-52651201D01*
X54799399Y-52650000D01*
X57200601Y-52650000D01*
X57225046Y-52651201D01*
X57225046Y-52651201D01*
G37*
D15*
X56000000Y-54100000D03*
G04 #@! TD*
D16*
G04 #@! TO.P,TH1,1*
G04 #@! TO.N,VDDS*
X68200000Y-52000000D03*
D17*
G04 #@! TO.P,TH1,2*
G04 #@! TO.N,ADC0*
X68200000Y-50100000D03*
G04 #@! TD*
D18*
G04 #@! TO.N,VDDS*
X66455000Y-55700000D03*
D19*
G04 #@! TO.N,GND*
X54600000Y-59300000D03*
X55200000Y-59800000D03*
X55900000Y-59300000D03*
D18*
X52066800Y-47254000D03*
X49933200Y-47254000D03*
X49933200Y-48016000D03*
X49171200Y-47254000D03*
X52066800Y-48016000D03*
X52066800Y-48778000D03*
X52066800Y-49540000D03*
X52828800Y-47254000D03*
X52828800Y-48016000D03*
X53590800Y-47254000D03*
X54352800Y-47254000D03*
X55114800Y-47254000D03*
X55876800Y-47254000D03*
X56638800Y-47254000D03*
X57400800Y-47254000D03*
X58162800Y-47254000D03*
X58924800Y-47254000D03*
X59686800Y-47254000D03*
X60448800Y-47254000D03*
X61210800Y-47254000D03*
X61972800Y-47254000D03*
X62734800Y-47254000D03*
X63496800Y-47254000D03*
X64258800Y-47254000D03*
X65020800Y-47254000D03*
X65782800Y-47254000D03*
X66544800Y-47254000D03*
X67306800Y-47254000D03*
X68068800Y-47254000D03*
X48409200Y-47254000D03*
X47647200Y-47254000D03*
X46885200Y-47254000D03*
X46123200Y-47254000D03*
X68830800Y-47254000D03*
X53590800Y-48016000D03*
X52828800Y-48778000D03*
X52828800Y-49540000D03*
X52066800Y-50302000D03*
X52828800Y-50302000D03*
X49933200Y-48778000D03*
X49171200Y-49540000D03*
X49171200Y-48778000D03*
X49171200Y-48016000D03*
X48409200Y-48016000D03*
X47647200Y-48016000D03*
X46885200Y-48016000D03*
X46123200Y-48016000D03*
X46123200Y-48778000D03*
X46885200Y-48778000D03*
X47647200Y-48778000D03*
X48409200Y-48778000D03*
X48409200Y-49540000D03*
X47647200Y-49540000D03*
X46885200Y-49540000D03*
X46123200Y-49540000D03*
X46123200Y-50302000D03*
X46885200Y-50302000D03*
X47647200Y-50302000D03*
X48409200Y-50302000D03*
X49171200Y-50302000D03*
X46123200Y-51064000D03*
X46885200Y-51064000D03*
X47647200Y-51064000D03*
X48409200Y-51064000D03*
X49171200Y-51064000D03*
X46885200Y-51826000D03*
X47647200Y-51826000D03*
X48409200Y-51826000D03*
X49171200Y-51826000D03*
D19*
X61900000Y-51600000D03*
X60400000Y-51540000D03*
D18*
X59686800Y-48016000D03*
X60448800Y-48016000D03*
X61210800Y-48016000D03*
X61972800Y-48016000D03*
X62734800Y-48016000D03*
X63496800Y-48016000D03*
X64258800Y-48016000D03*
X65020800Y-48016000D03*
X65782800Y-48016000D03*
X66544800Y-48016000D03*
X67306800Y-48016000D03*
X68068800Y-48016000D03*
X68830800Y-48016000D03*
X59686800Y-48778000D03*
X60448800Y-48778000D03*
X61210800Y-48778000D03*
X61972800Y-48778000D03*
X62734800Y-48778000D03*
X63496800Y-48778000D03*
X64258800Y-48778000D03*
X65020800Y-48778000D03*
X65782800Y-48778000D03*
X66544800Y-48778000D03*
X67306800Y-48778000D03*
X68068800Y-48778000D03*
X68830800Y-48778000D03*
X59686800Y-49540000D03*
X60448800Y-49540000D03*
X61210800Y-49540000D03*
X61972800Y-49540000D03*
X62734800Y-49540000D03*
X63496800Y-49540000D03*
X64258800Y-49540000D03*
X52066800Y-51064000D03*
D19*
X62700000Y-51600000D03*
X63500000Y-51600000D03*
X62300000Y-52000000D03*
X63100000Y-52000000D03*
X58500000Y-56800000D03*
X58500000Y-56100000D03*
X65700000Y-55900000D03*
D18*
X65020800Y-49540000D03*
D19*
X65000000Y-55600000D03*
X62700000Y-56300000D03*
X62000000Y-56300000D03*
G04 #@! TO.N,VDDR*
X67000000Y-56000000D03*
X65900000Y-56600000D03*
X54550000Y-51200000D03*
X58450000Y-51145180D03*
G04 #@! TO.N,ADC0*
X64400000Y-51600000D03*
G04 #@! TO.N,Net-(TP11-Pad1)*
X63900000Y-55300000D03*
X63371390Y-53800000D03*
G04 #@! TD*
D20*
G04 #@! TO.N,VDDS*
X68200000Y-52000000D02*
X66100000Y-52000000D01*
D21*
X66455000Y-53300000D02*
X66455000Y-55700000D01*
D22*
G04 #@! TO.N,VDDR*
X58414820Y-51110000D02*
X58450000Y-51145180D01*
X58146964Y-51110000D02*
X58414820Y-51110000D01*
X58096964Y-51060000D02*
X58146964Y-51110000D01*
X54959407Y-51060000D02*
X58096964Y-51060000D01*
X54819407Y-51200000D02*
X54959407Y-51060000D01*
X54550000Y-51200000D02*
X54819407Y-51200000D01*
X66433738Y-56600000D02*
X66809501Y-56224237D01*
X65900000Y-56600000D02*
X66433738Y-56600000D01*
X67000000Y-56015366D02*
X66892277Y-56179151D01*
X67000000Y-56000000D02*
X67000000Y-56015366D01*
D23*
G04 #@! TO.N,ADC0*
X65900000Y-50100000D02*
X68200000Y-50100000D01*
X64400000Y-51600000D02*
X65900000Y-50100000D01*
G04 #@! TO.N,Net-(TP11-Pad1)*
X63371390Y-54771390D02*
X63900000Y-55300000D01*
X63371390Y-53800000D02*
X63371390Y-54771390D01*
G04 #@! TD*
D24*
G04 #@! TO.N,GND*
X51990600Y-45349000D02*
X56864056Y-45349000D01*
X57988344Y-45349000D02*
X68463247Y-45349000D01*
X51990600Y-45590300D02*
X56838794Y-45590300D01*
X58013606Y-45590300D02*
X68557431Y-45590300D01*
X51990600Y-45831600D02*
X56838794Y-45831600D01*
X58013606Y-45831600D02*
X68633543Y-45831600D01*
X51990600Y-46072900D02*
X56856477Y-46072900D01*
X57995922Y-46072900D02*
X68696945Y-46072900D01*
X51990600Y-46314200D02*
X57156082Y-46314200D01*
X57696317Y-46314200D02*
X68760347Y-46314200D01*
X51990600Y-46555500D02*
X68823749Y-46555500D01*
X51979463Y-46796800D02*
X68887151Y-46796800D01*
X46066785Y-47038100D02*
X68944686Y-47038100D01*
X46026383Y-47279400D02*
X68979122Y-47279400D01*
X45985980Y-47520700D02*
X69013557Y-47520700D01*
X45945578Y-47762000D02*
X69047993Y-47762000D01*
X45905176Y-48003300D02*
X69082428Y-48003300D01*
X45888800Y-48244600D02*
X69116864Y-48244600D01*
X45876554Y-48485900D02*
X69131934Y-48485900D01*
X45864308Y-48727200D02*
X69138345Y-48727200D01*
X45852062Y-48968500D02*
X69144755Y-48968500D01*
X45839816Y-49209800D02*
X67683728Y-49209800D01*
X68716273Y-49209800D02*
X69151166Y-49209800D01*
X45835725Y-49451100D02*
X67398419Y-49451100D01*
X69001582Y-49451100D02*
X69157576Y-49451100D01*
X45851307Y-49692400D02*
X65882414Y-49692400D01*
X65917585Y-49692400D02*
X67237187Y-49692400D01*
X45866889Y-49933700D02*
X65496090Y-49933700D01*
X45882472Y-50175000D02*
X65254790Y-50175000D01*
X45898054Y-50416300D02*
X65013490Y-50416300D01*
X45913636Y-50657600D02*
X54793680Y-50657600D01*
X58262692Y-50657600D02*
X58274831Y-50657600D01*
X58625170Y-50657600D02*
X64772190Y-50657600D01*
X65912610Y-50657600D02*
X67337413Y-50657600D01*
X45950037Y-50898900D02*
X54119245Y-50898900D01*
X58908126Y-50898900D02*
X64530890Y-50898900D01*
X65671310Y-50898900D02*
X67547086Y-50898900D01*
X45993866Y-51140200D02*
X54032500Y-51140200D01*
X58967500Y-51140200D02*
X64157764Y-51140200D01*
X65430010Y-51140200D02*
X65493496Y-51140200D01*
X67416505Y-51140200D02*
X67607403Y-51140200D01*
X46037694Y-51381500D02*
X54065041Y-51381500D01*
X58912250Y-51381500D02*
X63930368Y-51381500D01*
X65188710Y-51381500D02*
X65446594Y-51381500D01*
X46081523Y-51622800D02*
X54240945Y-51622800D01*
X54882575Y-51622800D02*
X58250784Y-51622800D01*
X58649215Y-51622800D02*
X63882500Y-51622800D01*
X64947410Y-51622800D02*
X65446594Y-51622800D01*
X46125352Y-51864100D02*
X63949256Y-51864100D01*
X64850743Y-51864100D02*
X65446594Y-51864100D01*
X46176816Y-52105400D02*
X64267851Y-52105400D01*
X64532148Y-52105400D02*
X65446594Y-52105400D01*
X46250105Y-52346700D02*
X65446594Y-52346700D01*
X46323393Y-52588000D02*
X47537974Y-52588000D01*
X48462027Y-52588000D02*
X65446594Y-52588000D01*
X46396682Y-52829300D02*
X47259724Y-52829300D01*
X48740276Y-52829300D02*
X65446594Y-52829300D01*
X46469971Y-53070600D02*
X47133065Y-53070600D01*
X48866936Y-53070600D02*
X65446594Y-53070600D01*
X46543259Y-53311900D02*
X47073000Y-53311900D01*
X48927000Y-53311900D02*
X63197476Y-53311900D01*
X63545305Y-53311900D02*
X65446594Y-53311900D01*
X46646001Y-53553200D02*
X47073000Y-53553200D01*
X48927000Y-53553200D02*
X62913481Y-53553200D01*
X63829300Y-53553200D02*
X65446594Y-53553200D01*
X46750895Y-53794500D02*
X47160029Y-53794500D01*
X48839970Y-53794500D02*
X62853890Y-53794500D01*
X63888890Y-53794500D02*
X65446594Y-53794500D01*
X46855789Y-54035800D02*
X47324824Y-54035800D01*
X48675176Y-54035800D02*
X62908923Y-54035800D01*
X63833856Y-54035800D02*
X65446594Y-54035800D01*
X46960683Y-54277100D02*
X47695138Y-54277100D01*
X48304861Y-54277100D02*
X62968190Y-54277100D01*
X63774590Y-54277100D02*
X65446594Y-54277100D01*
X47065576Y-54518400D02*
X62968190Y-54518400D01*
X63774590Y-54518400D02*
X65446594Y-54518400D01*
X47199340Y-54759700D02*
X62962617Y-54759700D01*
X63929911Y-54759700D02*
X65446594Y-54759700D01*
X47339188Y-55001000D02*
X63039887Y-55001000D01*
X64332855Y-55001000D02*
X65446594Y-55001000D01*
X47479035Y-55242300D02*
X63272089Y-55242300D01*
X64417500Y-55242300D02*
X65446594Y-55242300D01*
X47618883Y-55483600D02*
X63415911Y-55483600D01*
X64384088Y-55483600D02*
X65509398Y-55483600D01*
X47759090Y-55724900D02*
X63593045Y-55724900D01*
X64206955Y-55724900D02*
X65874000Y-55724900D01*
X47938915Y-55966200D02*
X65936393Y-55966200D01*
X48118740Y-56207500D02*
X65560645Y-56207500D01*
X48298566Y-56448800D02*
X65402492Y-56448800D01*
X48478391Y-56690100D02*
X65382500Y-56690100D01*
X48684105Y-56931400D02*
X65499545Y-56931400D01*
X48911453Y-57172700D02*
X66095012Y-57172700D01*
X49138801Y-57414000D02*
X65859494Y-57414000D01*
X49366149Y-57655300D02*
X65623976Y-57655300D01*
X49622630Y-57896600D02*
X65388459Y-57896600D01*
X49909131Y-58137900D02*
X65096893Y-58137900D01*
X50195631Y-58379200D02*
X64799918Y-58379200D01*
X50482131Y-58620500D02*
X64502944Y-58620500D01*
X50839289Y-58861800D02*
X64173136Y-58861800D01*
X51203781Y-59103100D02*
X63794294Y-59103100D01*
X51568272Y-59344400D02*
X63415453Y-59344400D01*
X52025209Y-59585700D02*
X62988135Y-59585700D01*
X52500731Y-59827000D02*
X62491081Y-59827000D01*
X53031574Y-60068300D02*
X61994028Y-60068300D01*
X53683708Y-60309600D02*
X61308890Y-60309600D01*
X54464424Y-60550900D02*
X60566572Y-60550900D01*
X55512639Y-60792200D02*
X59495382Y-60792200D01*
X69163182Y-49662096D02*
X69163182Y-49662096D01*
X68921882Y-46928981D02*
X68921882Y-49347184D01*
X68680582Y-46010623D02*
X68680582Y-49185953D01*
X68439282Y-45349000D02*
X68439282Y-49100477D01*
X68197982Y-45349000D02*
X68197982Y-49073000D01*
X67956682Y-45349000D02*
X67956682Y-49101278D01*
X67715382Y-45349000D02*
X67715382Y-49188649D01*
X67715382Y-51011350D02*
X67715382Y-51089118D01*
X67474082Y-45349000D02*
X67474082Y-49349880D01*
X67474082Y-50850119D02*
X67474082Y-51273521D01*
X67232782Y-45349000D02*
X67232782Y-49696800D01*
X67232782Y-50503200D02*
X67232782Y-50987039D01*
X66991482Y-45349000D02*
X66991482Y-49696800D01*
X66991482Y-50503200D02*
X66991482Y-50966594D01*
X66750182Y-45349000D02*
X66750182Y-49696800D01*
X66750182Y-50503200D02*
X66750182Y-50966594D01*
X66508882Y-45349000D02*
X66508882Y-49696800D01*
X66508882Y-50503200D02*
X66508882Y-50966594D01*
X66267582Y-45349000D02*
X66267582Y-49696800D01*
X66267582Y-50503200D02*
X66267582Y-50966594D01*
X66026282Y-45349000D02*
X66026282Y-49696800D01*
X66026282Y-50543929D02*
X66026282Y-50966594D01*
X66026282Y-57107831D02*
X66026282Y-57243116D01*
X65784982Y-45349000D02*
X65784982Y-49711779D01*
X65784982Y-50785229D02*
X65784982Y-50966594D01*
X65784982Y-55633406D02*
X65784982Y-56087504D01*
X65784982Y-57112495D02*
X65784982Y-57490340D01*
X65543682Y-45349000D02*
X65543682Y-49886107D01*
X65543682Y-51026529D02*
X65543682Y-51065090D01*
X65543682Y-55534909D02*
X65543682Y-56224463D01*
X65543682Y-56975537D02*
X65543682Y-57737565D01*
X65302382Y-45349000D02*
X65302382Y-50127407D01*
X65302382Y-51267829D02*
X65302382Y-57970934D01*
X65061082Y-45349000D02*
X65061082Y-50368707D01*
X65061082Y-51509129D02*
X65061082Y-58166997D01*
X64819782Y-45349000D02*
X64819782Y-50610007D01*
X64819782Y-51912073D02*
X64819782Y-58363059D01*
X64578482Y-45349000D02*
X64578482Y-50851307D01*
X64578482Y-52086209D02*
X64578482Y-58559122D01*
X64337182Y-45349000D02*
X64337182Y-51082500D01*
X64337182Y-52117500D02*
X64337182Y-55005327D01*
X64337182Y-55594673D02*
X64337182Y-58755185D01*
X64095882Y-45349000D02*
X64095882Y-51172263D01*
X64095882Y-52027737D02*
X64095882Y-54821000D01*
X64095882Y-55779001D02*
X64095882Y-58911005D01*
X63854582Y-45349000D02*
X63854582Y-53614237D01*
X63854582Y-53985764D02*
X63854582Y-54684372D01*
X63854582Y-55817500D02*
X63854582Y-59064699D01*
X63613282Y-45349000D02*
X63613282Y-53340058D01*
X63613282Y-55741375D02*
X63613282Y-59218393D01*
X63371982Y-45349000D02*
X63371982Y-53282500D01*
X63371982Y-55342193D02*
X63371982Y-59372087D01*
X63130682Y-45349000D02*
X63130682Y-53339566D01*
X63130682Y-55100893D02*
X63130682Y-59516498D01*
X62889382Y-45349000D02*
X62889382Y-53611378D01*
X62889382Y-53988621D02*
X62889382Y-59633640D01*
X62648082Y-45349000D02*
X62648082Y-53697063D01*
X62648082Y-53697063D02*
X62648082Y-59750782D01*
X62406782Y-45349000D02*
X62406782Y-53697063D01*
X62406782Y-53697063D02*
X62406782Y-59867923D01*
X62165482Y-45349000D02*
X62165482Y-53697063D01*
X62165482Y-53697063D02*
X62165482Y-59985065D01*
X61924182Y-45349000D02*
X61924182Y-53697063D01*
X61924182Y-53697063D02*
X61924182Y-60094189D01*
X61682882Y-45349000D02*
X61682882Y-53697063D01*
X61682882Y-53697063D02*
X61682882Y-60178667D01*
X61441582Y-45349000D02*
X61441582Y-53697063D01*
X61441582Y-53697063D02*
X61441582Y-60263145D01*
X61200282Y-45349000D02*
X61200282Y-53697063D01*
X61200282Y-53697063D02*
X61200282Y-60347622D01*
X60958982Y-45349000D02*
X60958982Y-53697063D01*
X60958982Y-53697063D02*
X60958982Y-60432100D01*
X60717682Y-45349000D02*
X60717682Y-53697063D01*
X60717682Y-53697063D02*
X60717682Y-60516577D01*
X60476382Y-45349000D02*
X60476382Y-53697063D01*
X60476382Y-53697063D02*
X60476382Y-60571216D01*
X60235082Y-45349000D02*
X60235082Y-53697063D01*
X60235082Y-53697063D02*
X60235082Y-60625572D01*
X59993782Y-45349000D02*
X59993782Y-53697063D01*
X59993782Y-53697063D02*
X59993782Y-60679928D01*
X59752482Y-45349000D02*
X59752482Y-53697063D01*
X59752482Y-53697063D02*
X59752482Y-60734284D01*
X59511182Y-45349000D02*
X59511182Y-53697063D01*
X59511182Y-53697063D02*
X59511182Y-60788640D01*
X59269882Y-45349000D02*
X59269882Y-53697063D01*
X59269882Y-53697063D02*
X59269882Y-60827008D01*
X59028582Y-45349000D02*
X59028582Y-53697063D01*
X59028582Y-53697063D02*
X59028582Y-60852774D01*
X58787282Y-45349000D02*
X58787282Y-50750607D01*
X58787282Y-51539753D02*
X58787282Y-53697063D01*
X58787282Y-53697063D02*
X58787282Y-60878539D01*
X58545982Y-45349000D02*
X58545982Y-50627680D01*
X58545982Y-51662680D02*
X58545982Y-53697063D01*
X58545982Y-53697063D02*
X58545982Y-60904304D01*
X58304682Y-45349000D02*
X58304682Y-50645234D01*
X58304682Y-51645125D02*
X58304682Y-53697063D01*
X58304682Y-53697063D02*
X58304682Y-60930069D01*
X58063382Y-45349000D02*
X58063382Y-50631314D01*
X58063382Y-51528739D02*
X58063382Y-53697063D01*
X58063382Y-53697063D02*
X58063382Y-60955189D01*
X57822082Y-46282477D02*
X57822082Y-50633000D01*
X57822082Y-51487000D02*
X57822082Y-53697063D01*
X57822082Y-53697063D02*
X57822082Y-60953061D01*
X57580782Y-46317406D02*
X57580782Y-50633000D01*
X57580782Y-51487000D02*
X57580782Y-53697063D01*
X57580782Y-53697063D02*
X57580782Y-60950934D01*
X57339482Y-46317406D02*
X57339482Y-50633000D01*
X57339482Y-51487000D02*
X57339482Y-53697063D01*
X57339482Y-53697063D02*
X57339482Y-60948806D01*
X57098182Y-46302682D02*
X57098182Y-50633000D01*
X57098182Y-51487000D02*
X57098182Y-53697063D01*
X57098182Y-53697063D02*
X57098182Y-60946678D01*
X56856882Y-45349000D02*
X56856882Y-45385065D01*
X56856882Y-46074934D02*
X56856882Y-50633000D01*
X56856882Y-51487000D02*
X56856882Y-53697063D01*
X56856882Y-53697063D02*
X56856882Y-60944550D01*
X56615582Y-45349000D02*
X56615582Y-50633000D01*
X56615582Y-51487000D02*
X56615582Y-53697063D01*
X56615582Y-53697063D02*
X56615582Y-60929682D01*
X56374282Y-45349000D02*
X56374282Y-50633000D01*
X56374282Y-51487000D02*
X56374282Y-53697063D01*
X56374282Y-53697063D02*
X56374282Y-60899604D01*
X56132982Y-45349000D02*
X56132982Y-50633000D01*
X56132982Y-51487000D02*
X56132982Y-53697063D01*
X56132982Y-53697063D02*
X56132982Y-60869526D01*
X55891682Y-45349000D02*
X55891682Y-50633000D01*
X55891682Y-51487000D02*
X55891682Y-53697063D01*
X55891682Y-53697063D02*
X55891682Y-60839448D01*
X55650382Y-45349000D02*
X55650382Y-50633000D01*
X55650382Y-51487000D02*
X55650382Y-53697063D01*
X55650382Y-53697063D02*
X55650382Y-60809370D01*
X55409082Y-45349000D02*
X55409082Y-50633000D01*
X55409082Y-51487000D02*
X55409082Y-53697063D01*
X55409082Y-53697063D02*
X55409082Y-60779292D01*
X55167782Y-45349000D02*
X55167782Y-50633000D01*
X55167782Y-51487000D02*
X55167782Y-53697063D01*
X55167782Y-53697063D02*
X55167782Y-60722429D01*
X54926482Y-45349000D02*
X54926482Y-50631184D01*
X54926482Y-51614067D02*
X54926482Y-53697063D01*
X54926482Y-53697063D02*
X54926482Y-60663583D01*
X54685182Y-45349000D02*
X54685182Y-50695857D01*
X54685182Y-51704144D02*
X54685182Y-53697063D01*
X54685182Y-53697063D02*
X54685182Y-60604737D01*
X54443882Y-45349000D02*
X54443882Y-50683817D01*
X54443882Y-51716182D02*
X54443882Y-53697063D01*
X54443882Y-53697063D02*
X54443882Y-60545891D01*
X54202582Y-45349000D02*
X54202582Y-50815563D01*
X54202582Y-51584437D02*
X54202582Y-53697063D01*
X54202582Y-53697063D02*
X54202582Y-60487045D01*
X53961282Y-45349000D02*
X53961282Y-51097063D01*
X53961282Y-51097063D02*
X53961282Y-53697063D01*
X53961282Y-53697063D02*
X53961282Y-60412308D01*
X53719982Y-45349000D02*
X53719982Y-51097063D01*
X53719982Y-51097063D02*
X53719982Y-53697063D01*
X53719982Y-53697063D02*
X53719982Y-60323023D01*
X53478682Y-45349000D02*
X53478682Y-51097063D01*
X53478682Y-51097063D02*
X53478682Y-53697063D01*
X53478682Y-53697063D02*
X53478682Y-60233738D01*
X53237382Y-45349000D02*
X53237382Y-51097063D01*
X53237382Y-51097063D02*
X53237382Y-53697063D01*
X53237382Y-53697063D02*
X53237382Y-60144453D01*
X52996082Y-45349000D02*
X52996082Y-51097063D01*
X52996082Y-51097063D02*
X52996082Y-53697063D01*
X52996082Y-53697063D02*
X52996082Y-60055168D01*
X52754782Y-45349000D02*
X52754782Y-51097063D01*
X52754782Y-51097063D02*
X52754782Y-53697063D01*
X52754782Y-53697063D02*
X52754782Y-59955917D01*
X52513482Y-45349000D02*
X52513482Y-51097063D01*
X52513482Y-51097063D02*
X52513482Y-53697063D01*
X52513482Y-53697063D02*
X52513482Y-59833471D01*
X52272182Y-45349000D02*
X52272182Y-51097063D01*
X52272182Y-51097063D02*
X52272182Y-53697063D01*
X52272182Y-53697063D02*
X52272182Y-59711025D01*
X52030882Y-45349000D02*
X52030882Y-51097063D01*
X52030882Y-51097063D02*
X52030882Y-53697063D01*
X52030882Y-53697063D02*
X52030882Y-59588579D01*
X51789582Y-46873000D02*
X51789582Y-51097063D01*
X51789582Y-51097063D02*
X51789582Y-53697063D01*
X51789582Y-53697063D02*
X51789582Y-59466134D01*
X51548282Y-46873000D02*
X51548282Y-51097063D01*
X51548282Y-51097063D02*
X51548282Y-53697063D01*
X51548282Y-53697063D02*
X51548282Y-59331167D01*
X51306982Y-46873000D02*
X51306982Y-51097063D01*
X51306982Y-51097063D02*
X51306982Y-53697063D01*
X51306982Y-53697063D02*
X51306982Y-59171422D01*
X51065682Y-46873000D02*
X51065682Y-51097063D01*
X51065682Y-51097063D02*
X51065682Y-53697063D01*
X51065682Y-53697063D02*
X51065682Y-59011677D01*
X50824382Y-46873000D02*
X50824382Y-51097063D01*
X50824382Y-51097063D02*
X50824382Y-53697063D01*
X50824382Y-53697063D02*
X50824382Y-58851932D01*
X50583082Y-46873000D02*
X50583082Y-51097063D01*
X50583082Y-51097063D02*
X50583082Y-53697063D01*
X50583082Y-53697063D02*
X50583082Y-58692187D01*
X50341782Y-46873000D02*
X50341782Y-51097063D01*
X50341782Y-51097063D02*
X50341782Y-53697063D01*
X50341782Y-53697063D02*
X50341782Y-58502294D01*
X50100482Y-46873000D02*
X50100482Y-51097063D01*
X50100482Y-51097063D02*
X50100482Y-53697063D01*
X50100482Y-53697063D02*
X50100482Y-58299063D01*
X49859182Y-46873000D02*
X49859182Y-51097063D01*
X49859182Y-51097063D02*
X49859182Y-53697063D01*
X49859182Y-53697063D02*
X49859182Y-58095833D01*
X49617882Y-46873000D02*
X49617882Y-51097063D01*
X49617882Y-51097063D02*
X49617882Y-53697063D01*
X49617882Y-53697063D02*
X49617882Y-57892602D01*
X49376582Y-46873000D02*
X49376582Y-51097063D01*
X49376582Y-51097063D02*
X49376582Y-53697063D01*
X49376582Y-53697063D02*
X49376582Y-57666374D01*
X49135282Y-46873000D02*
X49135282Y-51097063D01*
X49135282Y-51097063D02*
X49135282Y-53697063D01*
X49135282Y-53697063D02*
X49135282Y-57410266D01*
X48893982Y-46873000D02*
X48893982Y-51097063D01*
X48893982Y-51097063D02*
X48893982Y-53135896D01*
X48893982Y-53664105D02*
X48893982Y-53697063D01*
X48893982Y-53697063D02*
X48893982Y-57154158D01*
X48652682Y-46873000D02*
X48652682Y-51097063D01*
X48652682Y-51097063D02*
X48652682Y-52741706D01*
X48652682Y-54058294D02*
X48652682Y-56898050D01*
X48411382Y-46873000D02*
X48411382Y-51097063D01*
X48411382Y-51097063D02*
X48411382Y-52567023D01*
X48411382Y-54232978D02*
X48411382Y-56600184D01*
X48170082Y-46873000D02*
X48170082Y-51097063D01*
X48170082Y-51097063D02*
X48170082Y-52473000D01*
X48170082Y-54327000D02*
X48170082Y-56276394D01*
X47928782Y-46873000D02*
X47928782Y-51097063D01*
X47928782Y-51097063D02*
X47928782Y-52473000D01*
X47928782Y-54327000D02*
X47928782Y-55952604D01*
X47687482Y-46873000D02*
X47687482Y-51097063D01*
X47687482Y-51097063D02*
X47687482Y-52526071D01*
X47687482Y-54273928D02*
X47687482Y-55601966D01*
X47446182Y-46873000D02*
X47446182Y-51097063D01*
X47446182Y-51097063D02*
X47446182Y-52642842D01*
X47446182Y-54157158D02*
X47446182Y-55185615D01*
X47204882Y-46873000D02*
X47204882Y-51097063D01*
X47204882Y-51097063D02*
X47204882Y-52897216D01*
X47204882Y-53902783D02*
X47204882Y-54769263D01*
X46963582Y-46873000D02*
X46963582Y-51097063D01*
X46963582Y-51097063D02*
X46963582Y-53215608D01*
X46963582Y-53215608D02*
X46963582Y-54283772D01*
X46722282Y-46873000D02*
X46722282Y-51097063D01*
X46722282Y-51097063D02*
X46722282Y-53215608D01*
X46722282Y-53215608D02*
X46722282Y-53728680D01*
X46480982Y-46873000D02*
X46480982Y-51097063D01*
X46480982Y-51097063D02*
X46480982Y-53106855D01*
X46239682Y-46873000D02*
X46239682Y-51097063D01*
X46239682Y-51097063D02*
X46239682Y-52312386D01*
X45998382Y-47446635D02*
X45998382Y-51097063D01*
X45998382Y-51097063D02*
X45998382Y-51165068D01*
D25*
X56838794Y-45476000D02*
X56838794Y-45984000D01*
X56864173Y-46111589D01*
X56936446Y-46219754D01*
X57044611Y-46292027D01*
X57172200Y-46317406D01*
X57680200Y-46317406D01*
X57807789Y-46292027D01*
X57915954Y-46219754D01*
X57988227Y-46111589D01*
X58013606Y-45984000D01*
X58013606Y-45476000D01*
X57988344Y-45349000D01*
X68463247Y-45349000D01*
X68596319Y-45689929D01*
X68937713Y-46989232D01*
X69127505Y-48319163D01*
X69163182Y-49662096D01*
X69160761Y-49689330D01*
X68940426Y-49359574D01*
X68600715Y-49132587D01*
X68301150Y-49073000D01*
X68098850Y-49073000D01*
X67799285Y-49132587D01*
X67459574Y-49359574D01*
X67234247Y-49696800D01*
X65939705Y-49696800D01*
X65899999Y-49688902D01*
X65860293Y-49696800D01*
X65860289Y-49696800D01*
X65742679Y-49720194D01*
X65609309Y-49809309D01*
X65586814Y-49842975D01*
X64347290Y-51082500D01*
X64297063Y-51082500D01*
X64106860Y-51161285D01*
X63961285Y-51306860D01*
X63882500Y-51497063D01*
X63882500Y-51702937D01*
X63961285Y-51893140D01*
X64106860Y-52038715D01*
X64297063Y-52117500D01*
X64502937Y-52117500D01*
X64693140Y-52038715D01*
X64838715Y-51893140D01*
X64917500Y-51702937D01*
X64917500Y-51652710D01*
X66067011Y-50503200D01*
X67234247Y-50503200D01*
X67459574Y-50840426D01*
X67787230Y-51059358D01*
X67618251Y-51129352D01*
X67460784Y-51286819D01*
X67438027Y-51172411D01*
X67365754Y-51064246D01*
X67257589Y-50991973D01*
X67130000Y-50966594D01*
X65780000Y-50966594D01*
X65652411Y-50991973D01*
X65544246Y-51064246D01*
X65471973Y-51172411D01*
X65446594Y-51300000D01*
X65446594Y-55300000D01*
X65471973Y-55427589D01*
X65544246Y-55535754D01*
X65652411Y-55608027D01*
X65780000Y-55633406D01*
X65874000Y-55633406D01*
X65874000Y-55815568D01*
X65962452Y-56029110D01*
X66024967Y-56091625D01*
X66002937Y-56082500D01*
X65797063Y-56082500D01*
X65606860Y-56161285D01*
X65461285Y-56306860D01*
X65382500Y-56497063D01*
X65382500Y-56702937D01*
X65461285Y-56893140D01*
X65606860Y-57038715D01*
X65797063Y-57117500D01*
X66002937Y-57117500D01*
X66193140Y-57038715D01*
X66204855Y-57027000D01*
X66237220Y-57027000D01*
X65367727Y-57917840D01*
X64325072Y-58765025D01*
X63191967Y-59486747D01*
X61983409Y-60073455D01*
X60715419Y-60517370D01*
X59404817Y-60812601D01*
X58068972Y-60955238D01*
X56725576Y-60943392D01*
X55392454Y-60777219D01*
X54087260Y-60458921D01*
X52827299Y-59992715D01*
X51629282Y-59384790D01*
X50509071Y-58643190D01*
X49481524Y-57777756D01*
X48560254Y-56799949D01*
X47757472Y-55722730D01*
X47083832Y-54560397D01*
X46548247Y-53328325D01*
X46514013Y-53215608D01*
X47073000Y-53215608D01*
X47073000Y-53584392D01*
X47214127Y-53925103D01*
X47474897Y-54185873D01*
X47815608Y-54327000D01*
X48184392Y-54327000D01*
X48525103Y-54185873D01*
X48785873Y-53925103D01*
X48880330Y-53697063D01*
X62853890Y-53697063D01*
X62853890Y-53902937D01*
X62932675Y-54093140D01*
X62968190Y-54128655D01*
X62968191Y-54731675D01*
X62960291Y-54771390D01*
X62991584Y-54928710D01*
X63045214Y-55008972D01*
X63080700Y-55062081D01*
X63114365Y-55084576D01*
X63382500Y-55352711D01*
X63382500Y-55402937D01*
X63461285Y-55593140D01*
X63606860Y-55738715D01*
X63797063Y-55817500D01*
X64002937Y-55817500D01*
X64193140Y-55738715D01*
X64338715Y-55593140D01*
X64417500Y-55402937D01*
X64417500Y-55197063D01*
X64338715Y-55006860D01*
X64193140Y-54861285D01*
X64002937Y-54782500D01*
X63952711Y-54782500D01*
X63774590Y-54604380D01*
X63774590Y-54128655D01*
X63810105Y-54093140D01*
X63888890Y-53902937D01*
X63888890Y-53697063D01*
X63810105Y-53506860D01*
X63664530Y-53361285D01*
X63474327Y-53282500D01*
X63268453Y-53282500D01*
X63078250Y-53361285D01*
X62932675Y-53506860D01*
X62853890Y-53697063D01*
X48880330Y-53697063D01*
X48927000Y-53584392D01*
X48927000Y-53215608D01*
X48785873Y-52874897D01*
X48525103Y-52614127D01*
X48184392Y-52473000D01*
X47815608Y-52473000D01*
X47474897Y-52614127D01*
X47214127Y-52874897D01*
X47073000Y-53215608D01*
X46514013Y-53215608D01*
X46157821Y-52042862D01*
X45986030Y-51097063D01*
X54032500Y-51097063D01*
X54032500Y-51302937D01*
X54111285Y-51493140D01*
X54256860Y-51638715D01*
X54447063Y-51717500D01*
X54652937Y-51717500D01*
X54843140Y-51638715D01*
X54853215Y-51628640D01*
X54861460Y-51627000D01*
X54861461Y-51627000D01*
X54986014Y-51602225D01*
X55127257Y-51507850D01*
X55141188Y-51487000D01*
X57942605Y-51487000D01*
X57980357Y-51512225D01*
X58104910Y-51537000D01*
X58111220Y-51538255D01*
X58156860Y-51583895D01*
X58347063Y-51662680D01*
X58552937Y-51662680D01*
X58743140Y-51583895D01*
X58888715Y-51438320D01*
X58967500Y-51248117D01*
X58967500Y-51042243D01*
X58888715Y-50852040D01*
X58743140Y-50706465D01*
X58552937Y-50627680D01*
X58347063Y-50627680D01*
X58267718Y-50660546D01*
X58263571Y-50657775D01*
X58139018Y-50633000D01*
X58139017Y-50633000D01*
X58096964Y-50624635D01*
X58054911Y-50633000D01*
X55001461Y-50633000D01*
X54959407Y-50624635D01*
X54917353Y-50633000D01*
X54792800Y-50657775D01*
X54716433Y-50708801D01*
X54652937Y-50682500D01*
X54447063Y-50682500D01*
X54256860Y-50761285D01*
X54111285Y-50906860D01*
X54032500Y-51097063D01*
X45986030Y-51097063D01*
X45917733Y-50721054D01*
X45831159Y-49380397D01*
X45899251Y-48038688D01*
X46094429Y-46873000D01*
X51863600Y-46873000D01*
X51912201Y-46863333D01*
X51953403Y-46835803D01*
X51980933Y-46794601D01*
X51990600Y-46746000D01*
X51990600Y-45349000D01*
X56864056Y-45349000D01*
X56838794Y-45476000D01*
G04 #@! TD*
M02*
